<?xml version="1.0" encoding="utf-8" standalone="no"?>
<!DOCTYPE svg PUBLIC "-//W3C//DTD SVG 1.1//EN"
  "http://www.w3.org/Graphics/SVG/1.1/DTD/svg11.dtd">
<svg xmlns:xlink="http://www.w3.org/1999/xlink" width="720pt" height="396pt" viewBox="0 0 720 396" xmlns="http://www.w3.org/2000/svg" version="1.1">
 <metadata>
  <rdf:RDF xmlns:dc="http://purl.org/dc/elements/1.1/" xmlns:cc="http://creativecommons.org/ns#" xmlns:rdf="http://www.w3.org/1999/02/22-rdf-syntax-ns#">
   <cc:Work>
    <dc:type rdf:resource="http://purl.org/dc/dcmitype/StillImage"/>
    <dc:date>2026-04-25T09:20:32.414742</dc:date>
    <dc:format>image/svg+xml</dc:format>
    <dc:creator>
     <cc:Agent>
      <dc:title>Matplotlib v3.10.0, https://matplotlib.org/</dc:title>
     </cc:Agent>
    </dc:creator>
   </cc:Work>
  </rdf:RDF>
 </metadata>
 <defs>
  <style type="text/css">*{stroke-linejoin: round; stroke-linecap: butt}</style>
 </defs>
 <g id="figure_1">
  <g id="patch_1">
   <path d="M 0 396 
L 720 396 
L 720 0 
L 0 0 
z
" style="fill: #ffffff"/>
  </g>
  <g id="axes_1">
   <g id="patch_2">
    <path d="M 62.3 354.04 
L 672.28 354.04 
L 672.28 34.56 
L 62.3 34.56 
z
" style="fill: #ffffff"/>
   </g>
   <g id="matplotlib.axis_1">
    <g id="xtick_1">
     <g id="line2d_1">
      <path d="M 83.79572 354.04 
L 83.79572 34.56 
" clip-path="url(#pe8f82500bd)" style="fill: none; stroke: #b0b0b0; stroke-opacity: 0.25; stroke-width: 0.8; stroke-linecap: square"/>
     </g>
     <g id="line2d_2">
      <defs>
       <path id="m1eda00a86c" d="M 0 0 
L 0 3.5 
" style="stroke: #000000; stroke-width: 0.8"/>
      </defs>
      <g>
       <use xlink:href="#m1eda00a86c" x="83.79572" y="354.04" style="stroke: #000000; stroke-width: 0.8"/>
      </g>
     </g>
     <g id="text_1">
      <!-- 0 -->
      <g transform="translate(80.61447 368.638438) scale(0.1 -0.1)">
       <defs>
        <path id="DejaVuSans-30" d="M 2034 4250 
Q 1547 4250 1301 3770 
Q 1056 3291 1056 2328 
Q 1056 1369 1301 889 
Q 1547 409 2034 409 
Q 2525 409 2770 889 
Q 3016 1369 3016 2328 
Q 3016 3291 2770 3770 
Q 2525 4250 2034 4250 
z
M 2034 4750 
Q 2819 4750 3233 4129 
Q 3647 3509 3647 2328 
Q 3647 1150 3233 529 
Q 2819 -91 2034 -91 
Q 1250 -91 836 529 
Q 422 1150 422 2328 
Q 422 3509 836 4129 
Q 1250 4750 2034 4750 
z
" transform="scale(0.015625)"/>
       </defs>
       <use xlink:href="#DejaVuSans-30"/>
      </g>
     </g>
    </g>
    <g id="xtick_2">
     <g id="line2d_3">
      <path d="M 208.40859 354.04 
L 208.40859 34.56 
" clip-path="url(#pe8f82500bd)" style="fill: none; stroke: #b0b0b0; stroke-opacity: 0.25; stroke-width: 0.8; stroke-linecap: square"/>
     </g>
     <g id="line2d_4">
      <g>
       <use xlink:href="#m1eda00a86c" x="208.40859" y="354.04" style="stroke: #000000; stroke-width: 0.8"/>
      </g>
     </g>
     <g id="text_2">
      <!-- 100 -->
      <g transform="translate(198.86484 368.638438) scale(0.1 -0.1)">
       <defs>
        <path id="DejaVuSans-31" d="M 794 531 
L 1825 531 
L 1825 4091 
L 703 3866 
L 703 4441 
L 1819 4666 
L 2450 4666 
L 2450 531 
L 3481 531 
L 3481 0 
L 794 0 
L 794 531 
z
" transform="scale(0.015625)"/>
       </defs>
       <use xlink:href="#DejaVuSans-31"/>
       <use xlink:href="#DejaVuSans-30" transform="translate(63.623047 0)"/>
       <use xlink:href="#DejaVuSans-30" transform="translate(127.246094 0)"/>
      </g>
     </g>
    </g>
    <g id="xtick_3">
     <g id="line2d_5">
      <path d="M 333.021461 354.04 
L 333.021461 34.56 
" clip-path="url(#pe8f82500bd)" style="fill: none; stroke: #b0b0b0; stroke-opacity: 0.25; stroke-width: 0.8; stroke-linecap: square"/>
     </g>
     <g id="line2d_6">
      <g>
       <use xlink:href="#m1eda00a86c" x="333.021461" y="354.04" style="stroke: #000000; stroke-width: 0.8"/>
      </g>
     </g>
     <g id="text_3">
      <!-- 200 -->
      <g transform="translate(323.477711 368.638438) scale(0.1 -0.1)">
       <defs>
        <path id="DejaVuSans-32" d="M 1228 531 
L 3431 531 
L 3431 0 
L 469 0 
L 469 531 
Q 828 903 1448 1529 
Q 2069 2156 2228 2338 
Q 2531 2678 2651 2914 
Q 2772 3150 2772 3378 
Q 2772 3750 2511 3984 
Q 2250 4219 1831 4219 
Q 1534 4219 1204 4116 
Q 875 4013 500 3803 
L 500 4441 
Q 881 4594 1212 4672 
Q 1544 4750 1819 4750 
Q 2544 4750 2975 4387 
Q 3406 4025 3406 3419 
Q 3406 3131 3298 2873 
Q 3191 2616 2906 2266 
Q 2828 2175 2409 1742 
Q 1991 1309 1228 531 
z
" transform="scale(0.015625)"/>
       </defs>
       <use xlink:href="#DejaVuSans-32"/>
       <use xlink:href="#DejaVuSans-30" transform="translate(63.623047 0)"/>
       <use xlink:href="#DejaVuSans-30" transform="translate(127.246094 0)"/>
      </g>
     </g>
    </g>
    <g id="xtick_4">
     <g id="line2d_7">
      <path d="M 457.634331 354.04 
L 457.634331 34.56 
" clip-path="url(#pe8f82500bd)" style="fill: none; stroke: #b0b0b0; stroke-opacity: 0.25; stroke-width: 0.8; stroke-linecap: square"/>
     </g>
     <g id="line2d_8">
      <g>
       <use xlink:href="#m1eda00a86c" x="457.634331" y="354.04" style="stroke: #000000; stroke-width: 0.8"/>
      </g>
     </g>
     <g id="text_4">
      <!-- 300 -->
      <g transform="translate(448.090581 368.638438) scale(0.1 -0.1)">
       <defs>
        <path id="DejaVuSans-33" d="M 2597 2516 
Q 3050 2419 3304 2112 
Q 3559 1806 3559 1356 
Q 3559 666 3084 287 
Q 2609 -91 1734 -91 
Q 1441 -91 1130 -33 
Q 819 25 488 141 
L 488 750 
Q 750 597 1062 519 
Q 1375 441 1716 441 
Q 2309 441 2620 675 
Q 2931 909 2931 1356 
Q 2931 1769 2642 2001 
Q 2353 2234 1838 2234 
L 1294 2234 
L 1294 2753 
L 1863 2753 
Q 2328 2753 2575 2939 
Q 2822 3125 2822 3475 
Q 2822 3834 2567 4026 
Q 2313 4219 1838 4219 
Q 1578 4219 1281 4162 
Q 984 4106 628 3988 
L 628 4550 
Q 988 4650 1302 4700 
Q 1616 4750 1894 4750 
Q 2613 4750 3031 4423 
Q 3450 4097 3450 3541 
Q 3450 3153 3228 2886 
Q 3006 2619 2597 2516 
z
" transform="scale(0.015625)"/>
       </defs>
       <use xlink:href="#DejaVuSans-33"/>
       <use xlink:href="#DejaVuSans-30" transform="translate(63.623047 0)"/>
       <use xlink:href="#DejaVuSans-30" transform="translate(127.246094 0)"/>
      </g>
     </g>
    </g>
    <g id="xtick_5">
     <g id="line2d_9">
      <path d="M 582.247201 354.04 
L 582.247201 34.56 
" clip-path="url(#pe8f82500bd)" style="fill: none; stroke: #b0b0b0; stroke-opacity: 0.25; stroke-width: 0.8; stroke-linecap: square"/>
     </g>
     <g id="line2d_10">
      <g>
       <use xlink:href="#m1eda00a86c" x="582.247201" y="354.04" style="stroke: #000000; stroke-width: 0.8"/>
      </g>
     </g>
     <g id="text_5">
      <!-- 400 -->
      <g transform="translate(572.703451 368.638438) scale(0.1 -0.1)">
       <defs>
        <path id="DejaVuSans-34" d="M 2419 4116 
L 825 1625 
L 2419 1625 
L 2419 4116 
z
M 2253 4666 
L 3047 4666 
L 3047 1625 
L 3713 1625 
L 3713 1100 
L 3047 1100 
L 3047 0 
L 2419 0 
L 2419 1100 
L 313 1100 
L 313 1709 
L 2253 4666 
z
" transform="scale(0.015625)"/>
       </defs>
       <use xlink:href="#DejaVuSans-34"/>
       <use xlink:href="#DejaVuSans-30" transform="translate(63.623047 0)"/>
       <use xlink:href="#DejaVuSans-30" transform="translate(127.246094 0)"/>
      </g>
     </g>
    </g>
    <g id="text_6">
     <!-- Training step -->
     <g transform="translate(335.159531 382.316563) scale(0.1 -0.1)">
      <defs>
       <path id="DejaVuSans-54" d="M -19 4666 
L 3928 4666 
L 3928 4134 
L 2272 4134 
L 2272 0 
L 1638 0 
L 1638 4134 
L -19 4134 
L -19 4666 
z
" transform="scale(0.015625)"/>
       <path id="DejaVuSans-72" d="M 2631 2963 
Q 2534 3019 2420 3045 
Q 2306 3072 2169 3072 
Q 1681 3072 1420 2755 
Q 1159 2438 1159 1844 
L 1159 0 
L 581 0 
L 581 3500 
L 1159 3500 
L 1159 2956 
Q 1341 3275 1631 3429 
Q 1922 3584 2338 3584 
Q 2397 3584 2469 3576 
Q 2541 3569 2628 3553 
L 2631 2963 
z
" transform="scale(0.015625)"/>
       <path id="DejaVuSans-61" d="M 2194 1759 
Q 1497 1759 1228 1600 
Q 959 1441 959 1056 
Q 959 750 1161 570 
Q 1363 391 1709 391 
Q 2188 391 2477 730 
Q 2766 1069 2766 1631 
L 2766 1759 
L 2194 1759 
z
M 3341 1997 
L 3341 0 
L 2766 0 
L 2766 531 
Q 2569 213 2275 61 
Q 1981 -91 1556 -91 
Q 1019 -91 701 211 
Q 384 513 384 1019 
Q 384 1609 779 1909 
Q 1175 2209 1959 2209 
L 2766 2209 
L 2766 2266 
Q 2766 2663 2505 2880 
Q 2244 3097 1772 3097 
Q 1472 3097 1187 3025 
Q 903 2953 641 2809 
L 641 3341 
Q 956 3463 1253 3523 
Q 1550 3584 1831 3584 
Q 2591 3584 2966 3190 
Q 3341 2797 3341 1997 
z
" transform="scale(0.015625)"/>
       <path id="DejaVuSans-69" d="M 603 3500 
L 1178 3500 
L 1178 0 
L 603 0 
L 603 3500 
z
M 603 4863 
L 1178 4863 
L 1178 4134 
L 603 4134 
L 603 4863 
z
" transform="scale(0.015625)"/>
       <path id="DejaVuSans-6e" d="M 3513 2113 
L 3513 0 
L 2938 0 
L 2938 2094 
Q 2938 2591 2744 2837 
Q 2550 3084 2163 3084 
Q 1697 3084 1428 2787 
Q 1159 2491 1159 1978 
L 1159 0 
L 581 0 
L 581 3500 
L 1159 3500 
L 1159 2956 
Q 1366 3272 1645 3428 
Q 1925 3584 2291 3584 
Q 2894 3584 3203 3211 
Q 3513 2838 3513 2113 
z
" transform="scale(0.015625)"/>
       <path id="DejaVuSans-67" d="M 2906 1791 
Q 2906 2416 2648 2759 
Q 2391 3103 1925 3103 
Q 1463 3103 1205 2759 
Q 947 2416 947 1791 
Q 947 1169 1205 825 
Q 1463 481 1925 481 
Q 2391 481 2648 825 
Q 2906 1169 2906 1791 
z
M 3481 434 
Q 3481 -459 3084 -895 
Q 2688 -1331 1869 -1331 
Q 1566 -1331 1297 -1286 
Q 1028 -1241 775 -1147 
L 775 -588 
Q 1028 -725 1275 -790 
Q 1522 -856 1778 -856 
Q 2344 -856 2625 -561 
Q 2906 -266 2906 331 
L 2906 616 
Q 2728 306 2450 153 
Q 2172 0 1784 0 
Q 1141 0 747 490 
Q 353 981 353 1791 
Q 353 2603 747 3093 
Q 1141 3584 1784 3584 
Q 2172 3584 2450 3431 
Q 2728 3278 2906 2969 
L 2906 3500 
L 3481 3500 
L 3481 434 
z
" transform="scale(0.015625)"/>
       <path id="DejaVuSans-20" transform="scale(0.015625)"/>
       <path id="DejaVuSans-73" d="M 2834 3397 
L 2834 2853 
Q 2591 2978 2328 3040 
Q 2066 3103 1784 3103 
Q 1356 3103 1142 2972 
Q 928 2841 928 2578 
Q 928 2378 1081 2264 
Q 1234 2150 1697 2047 
L 1894 2003 
Q 2506 1872 2764 1633 
Q 3022 1394 3022 966 
Q 3022 478 2636 193 
Q 2250 -91 1575 -91 
Q 1294 -91 989 -36 
Q 684 19 347 128 
L 347 722 
Q 666 556 975 473 
Q 1284 391 1588 391 
Q 1994 391 2212 530 
Q 2431 669 2431 922 
Q 2431 1156 2273 1281 
Q 2116 1406 1581 1522 
L 1381 1569 
Q 847 1681 609 1914 
Q 372 2147 372 2553 
Q 372 3047 722 3315 
Q 1072 3584 1716 3584 
Q 2034 3584 2315 3537 
Q 2597 3491 2834 3397 
z
" transform="scale(0.015625)"/>
       <path id="DejaVuSans-74" d="M 1172 4494 
L 1172 3500 
L 2356 3500 
L 2356 3053 
L 1172 3053 
L 1172 1153 
Q 1172 725 1289 603 
Q 1406 481 1766 481 
L 2356 481 
L 2356 0 
L 1766 0 
Q 1100 0 847 248 
Q 594 497 594 1153 
L 594 3053 
L 172 3053 
L 172 3500 
L 594 3500 
L 594 4494 
L 1172 4494 
z
" transform="scale(0.015625)"/>
       <path id="DejaVuSans-65" d="M 3597 1894 
L 3597 1613 
L 953 1613 
Q 991 1019 1311 708 
Q 1631 397 2203 397 
Q 2534 397 2845 478 
Q 3156 559 3463 722 
L 3463 178 
Q 3153 47 2828 -22 
Q 2503 -91 2169 -91 
Q 1331 -91 842 396 
Q 353 884 353 1716 
Q 353 2575 817 3079 
Q 1281 3584 2069 3584 
Q 2775 3584 3186 3129 
Q 3597 2675 3597 1894 
z
M 3022 2063 
Q 3016 2534 2758 2815 
Q 2500 3097 2075 3097 
Q 1594 3097 1305 2825 
Q 1016 2553 972 2059 
L 3022 2063 
z
" transform="scale(0.015625)"/>
       <path id="DejaVuSans-70" d="M 1159 525 
L 1159 -1331 
L 581 -1331 
L 581 3500 
L 1159 3500 
L 1159 2969 
Q 1341 3281 1617 3432 
Q 1894 3584 2278 3584 
Q 2916 3584 3314 3078 
Q 3713 2572 3713 1747 
Q 3713 922 3314 415 
Q 2916 -91 2278 -91 
Q 1894 -91 1617 61 
Q 1341 213 1159 525 
z
M 3116 1747 
Q 3116 2381 2855 2742 
Q 2594 3103 2138 3103 
Q 1681 3103 1420 2742 
Q 1159 2381 1159 1747 
Q 1159 1113 1420 752 
Q 1681 391 2138 391 
Q 2594 391 2855 752 
Q 3116 1113 3116 1747 
z
" transform="scale(0.015625)"/>
      </defs>
      <use xlink:href="#DejaVuSans-54"/>
      <use xlink:href="#DejaVuSans-72" transform="translate(46.333984 0)"/>
      <use xlink:href="#DejaVuSans-61" transform="translate(87.447266 0)"/>
      <use xlink:href="#DejaVuSans-69" transform="translate(148.726562 0)"/>
      <use xlink:href="#DejaVuSans-6e" transform="translate(176.509766 0)"/>
      <use xlink:href="#DejaVuSans-69" transform="translate(239.888672 0)"/>
      <use xlink:href="#DejaVuSans-6e" transform="translate(267.671875 0)"/>
      <use xlink:href="#DejaVuSans-67" transform="translate(331.050781 0)"/>
      <use xlink:href="#DejaVuSans-20" transform="translate(394.527344 0)"/>
      <use xlink:href="#DejaVuSans-73" transform="translate(426.314453 0)"/>
      <use xlink:href="#DejaVuSans-74" transform="translate(478.414062 0)"/>
      <use xlink:href="#DejaVuSans-65" transform="translate(517.623047 0)"/>
      <use xlink:href="#DejaVuSans-70" transform="translate(579.146484 0)"/>
     </g>
    </g>
   </g>
   <g id="matplotlib.axis_2">
    <g id="ytick_1">
     <g id="line2d_11">
      <path d="M 62.3 345.131906 
L 672.28 345.131906 
" clip-path="url(#pe8f82500bd)" style="fill: none; stroke: #b0b0b0; stroke-opacity: 0.25; stroke-width: 0.8; stroke-linecap: square"/>
     </g>
     <g id="line2d_12">
      <defs>
       <path id="m714e9716e5" d="M 0 0 
L -3.5 0 
" style="stroke: #000000; stroke-width: 0.8"/>
      </defs>
      <g>
       <use xlink:href="#m714e9716e5" x="62.3" y="345.131906" style="stroke: #000000; stroke-width: 0.8"/>
      </g>
     </g>
     <g id="text_7">
      <!-- −0.04 -->
      <g style="fill: #26547c" transform="translate(24.654688 348.931125) scale(0.1 -0.1)">
       <defs>
        <path id="DejaVuSans-2212" d="M 678 2272 
L 4684 2272 
L 4684 1741 
L 678 1741 
L 678 2272 
z
" transform="scale(0.015625)"/>
        <path id="DejaVuSans-2e" d="M 684 794 
L 1344 794 
L 1344 0 
L 684 0 
L 684 794 
z
" transform="scale(0.015625)"/>
       </defs>
       <use xlink:href="#DejaVuSans-2212"/>
       <use xlink:href="#DejaVuSans-30" transform="translate(83.789062 0)"/>
       <use xlink:href="#DejaVuSans-2e" transform="translate(147.412109 0)"/>
       <use xlink:href="#DejaVuSans-30" transform="translate(179.199219 0)"/>
       <use xlink:href="#DejaVuSans-34" transform="translate(242.822266 0)"/>
      </g>
     </g>
    </g>
    <g id="ytick_2">
     <g id="line2d_13">
      <path d="M 62.3 286.040072 
L 672.28 286.040072 
" clip-path="url(#pe8f82500bd)" style="fill: none; stroke: #b0b0b0; stroke-opacity: 0.25; stroke-width: 0.8; stroke-linecap: square"/>
     </g>
     <g id="line2d_14">
      <g>
       <use xlink:href="#m714e9716e5" x="62.3" y="286.040072" style="stroke: #000000; stroke-width: 0.8"/>
      </g>
     </g>
     <g id="text_8">
      <!-- −0.02 -->
      <g style="fill: #26547c" transform="translate(24.654688 289.839291) scale(0.1 -0.1)">
       <use xlink:href="#DejaVuSans-2212"/>
       <use xlink:href="#DejaVuSans-30" transform="translate(83.789062 0)"/>
       <use xlink:href="#DejaVuSans-2e" transform="translate(147.412109 0)"/>
       <use xlink:href="#DejaVuSans-30" transform="translate(179.199219 0)"/>
       <use xlink:href="#DejaVuSans-32" transform="translate(242.822266 0)"/>
      </g>
     </g>
    </g>
    <g id="ytick_3">
     <g id="line2d_15">
      <path d="M 62.3 226.948238 
L 672.28 226.948238 
" clip-path="url(#pe8f82500bd)" style="fill: none; stroke: #b0b0b0; stroke-opacity: 0.25; stroke-width: 0.8; stroke-linecap: square"/>
     </g>
     <g id="line2d_16">
      <g>
       <use xlink:href="#m714e9716e5" x="62.3" y="226.948238" style="stroke: #000000; stroke-width: 0.8"/>
      </g>
     </g>
     <g id="text_9">
      <!-- 0.00 -->
      <g style="fill: #26547c" transform="translate(33.034375 230.747457) scale(0.1 -0.1)">
       <use xlink:href="#DejaVuSans-30"/>
       <use xlink:href="#DejaVuSans-2e" transform="translate(63.623047 0)"/>
       <use xlink:href="#DejaVuSans-30" transform="translate(95.410156 0)"/>
       <use xlink:href="#DejaVuSans-30" transform="translate(159.033203 0)"/>
      </g>
     </g>
    </g>
    <g id="ytick_4">
     <g id="line2d_17">
      <path d="M 62.3 167.856404 
L 672.28 167.856404 
" clip-path="url(#pe8f82500bd)" style="fill: none; stroke: #b0b0b0; stroke-opacity: 0.25; stroke-width: 0.8; stroke-linecap: square"/>
     </g>
     <g id="line2d_18">
      <g>
       <use xlink:href="#m714e9716e5" x="62.3" y="167.856404" style="stroke: #000000; stroke-width: 0.8"/>
      </g>
     </g>
     <g id="text_10">
      <!-- 0.02 -->
      <g style="fill: #26547c" transform="translate(33.034375 171.655623) scale(0.1 -0.1)">
       <use xlink:href="#DejaVuSans-30"/>
       <use xlink:href="#DejaVuSans-2e" transform="translate(63.623047 0)"/>
       <use xlink:href="#DejaVuSans-30" transform="translate(95.410156 0)"/>
       <use xlink:href="#DejaVuSans-32" transform="translate(159.033203 0)"/>
      </g>
     </g>
    </g>
    <g id="ytick_5">
     <g id="line2d_19">
      <path d="M 62.3 108.76457 
L 672.28 108.76457 
" clip-path="url(#pe8f82500bd)" style="fill: none; stroke: #b0b0b0; stroke-opacity: 0.25; stroke-width: 0.8; stroke-linecap: square"/>
     </g>
     <g id="line2d_20">
      <g>
       <use xlink:href="#m714e9716e5" x="62.3" y="108.76457" style="stroke: #000000; stroke-width: 0.8"/>
      </g>
     </g>
     <g id="text_11">
      <!-- 0.04 -->
      <g style="fill: #26547c" transform="translate(33.034375 112.563789) scale(0.1 -0.1)">
       <use xlink:href="#DejaVuSans-30"/>
       <use xlink:href="#DejaVuSans-2e" transform="translate(63.623047 0)"/>
       <use xlink:href="#DejaVuSans-30" transform="translate(95.410156 0)"/>
       <use xlink:href="#DejaVuSans-34" transform="translate(159.033203 0)"/>
      </g>
     </g>
    </g>
    <g id="ytick_6">
     <g id="line2d_21">
      <path d="M 62.3 49.672737 
L 672.28 49.672737 
" clip-path="url(#pe8f82500bd)" style="fill: none; stroke: #b0b0b0; stroke-opacity: 0.25; stroke-width: 0.8; stroke-linecap: square"/>
     </g>
     <g id="line2d_22">
      <g>
       <use xlink:href="#m714e9716e5" x="62.3" y="49.672737" style="stroke: #000000; stroke-width: 0.8"/>
      </g>
     </g>
     <g id="text_12">
      <!-- 0.06 -->
      <g style="fill: #26547c" transform="translate(33.034375 53.471955) scale(0.1 -0.1)">
       <defs>
        <path id="DejaVuSans-36" d="M 2113 2584 
Q 1688 2584 1439 2293 
Q 1191 2003 1191 1497 
Q 1191 994 1439 701 
Q 1688 409 2113 409 
Q 2538 409 2786 701 
Q 3034 994 3034 1497 
Q 3034 2003 2786 2293 
Q 2538 2584 2113 2584 
z
M 3366 4563 
L 3366 3988 
Q 3128 4100 2886 4159 
Q 2644 4219 2406 4219 
Q 1781 4219 1451 3797 
Q 1122 3375 1075 2522 
Q 1259 2794 1537 2939 
Q 1816 3084 2150 3084 
Q 2853 3084 3261 2657 
Q 3669 2231 3669 1497 
Q 3669 778 3244 343 
Q 2819 -91 2113 -91 
Q 1303 -91 875 529 
Q 447 1150 447 2328 
Q 447 3434 972 4092 
Q 1497 4750 2381 4750 
Q 2619 4750 2861 4703 
Q 3103 4656 3366 4563 
z
" transform="scale(0.015625)"/>
       </defs>
       <use xlink:href="#DejaVuSans-30"/>
       <use xlink:href="#DejaVuSans-2e" transform="translate(63.623047 0)"/>
       <use xlink:href="#DejaVuSans-30" transform="translate(95.410156 0)"/>
       <use xlink:href="#DejaVuSans-36" transform="translate(159.033203 0)"/>
      </g>
     </g>
    </g>
    <g id="text_13">
     <!-- Loss -->
     <g style="fill: #26547c" transform="translate(18.575 205.267188) rotate(-90) scale(0.1 -0.1)">
      <defs>
       <path id="DejaVuSans-4c" d="M 628 4666 
L 1259 4666 
L 1259 531 
L 3531 531 
L 3531 0 
L 628 0 
L 628 4666 
z
" transform="scale(0.015625)"/>
       <path id="DejaVuSans-6f" d="M 1959 3097 
Q 1497 3097 1228 2736 
Q 959 2375 959 1747 
Q 959 1119 1226 758 
Q 1494 397 1959 397 
Q 2419 397 2687 759 
Q 2956 1122 2956 1747 
Q 2956 2369 2687 2733 
Q 2419 3097 1959 3097 
z
M 1959 3584 
Q 2709 3584 3137 3096 
Q 3566 2609 3566 1747 
Q 3566 888 3137 398 
Q 2709 -91 1959 -91 
Q 1206 -91 779 398 
Q 353 888 353 1747 
Q 353 2609 779 3096 
Q 1206 3584 1959 3584 
z
" transform="scale(0.015625)"/>
      </defs>
      <use xlink:href="#DejaVuSans-4c"/>
      <use xlink:href="#DejaVuSans-6f" transform="translate(53.962891 0)"/>
      <use xlink:href="#DejaVuSans-73" transform="translate(115.144531 0)"/>
      <use xlink:href="#DejaVuSans-73" transform="translate(167.244141 0)"/>
     </g>
    </g>
   </g>
   <g id="line2d_23">
    <path d="M 90.026364 245.266707 
L 96.257007 214.538953 
L 102.487651 201.834209 
L 108.718294 235.516554 
L 114.948938 227.834616 
L 121.179581 299.631194 
L 127.410225 202.129668 
L 133.640868 229.016452 
L 139.871512 199.470535 
L 146.102155 169.629159 
L 152.332799 200.061454 
L 158.563442 169.3337 
L 164.794086 190.90222 
L 171.024729 169.038241 
L 177.255373 224.289106 
L 183.486016 188.538546 
L 189.71666 151.015232 
L 195.947303 173.765588 
L 202.177947 117.628346 
L 208.40859 49.081818 
L 214.639234 186.470332 
L 220.869877 279.83543 
L 227.100521 183.51574 
L 233.331164 85.127837 
L 239.561808 253.539563 
L 245.792451 192.379515 
L 252.023095 177.902016 
L 258.253739 212.766198 
L 264.484382 214.243494 
L 270.715026 275.699001 
L 276.945669 270.676195 
L 283.176313 174.356506 
L 289.406956 224.584565 
L 295.6376 158.992629 
L 301.868243 269.494359 
L 308.098887 147.174262 
L 314.32953 216.902626 
L 320.560174 189.424924 
L 326.790817 255.607778 
L 333.021461 187.35671 
L 339.252104 187.35671 
L 345.482748 187.947628 
L 351.713391 206.266096 
L 357.944035 339.518182 
L 364.174678 188.834005 
L 370.405322 174.356506 
L 376.635965 113.491917 
L 382.866609 177.311098 
L 389.097252 158.992629 
L 395.327896 177.902016 
L 401.558539 197.99324 
L 407.789183 333.313539 
L 414.019826 306.722214 
L 420.25047 204.493341 
L 426.481113 191.493138 
L 432.711757 268.312522 
L 438.9424 172.288292 
L 445.173044 153.378905 
L 451.403687 256.789614 
L 457.634331 302.290326 
L 463.864974 241.130278 
L 470.095618 147.765181 
L 476.326261 214.538953 
L 482.556905 222.81181 
L 488.787549 244.971248 
L 495.018192 288.699205 
L 501.248836 191.493138 
L 507.479479 204.493341 
L 513.710123 223.107269 
L 519.940766 259.153288 
L 526.17141 270.085277 
L 532.402053 204.788801 
L 538.632697 175.833802 
L 544.86334 200.061454 
L 551.093984 149.833395 
L 557.324627 233.44834 
L 563.555271 207.447933 
L 569.785914 191.197679 
L 576.016558 260.630584 
L 582.247201 103.741765 
L 588.477845 301.10849 
L 594.708488 186.470332 
L 600.939132 303.767622 
L 607.169775 250.880431 
L 613.400419 286.040072 
L 619.631062 268.607981 
L 625.861706 222.516351 
L 632.092349 260.926043 
L 638.322993 241.721197 
L 644.553636 156.628956 
" clip-path="url(#pe8f82500bd)" style="fill: none; stroke: #26547c; stroke-width: 2; stroke-linecap: square"/>
   </g>
   <g id="patch_3">
    <path d="M 62.3 354.04 
L 62.3 34.56 
" style="fill: none; stroke: #000000; stroke-width: 0.8; stroke-linejoin: miter; stroke-linecap: square"/>
   </g>
   <g id="patch_4">
    <path d="M 672.28 354.04 
L 672.28 34.56 
" style="fill: none; stroke: #000000; stroke-width: 0.8; stroke-linejoin: miter; stroke-linecap: square"/>
   </g>
   <g id="patch_5">
    <path d="M 62.3 354.04 
L 672.28 354.04 
" style="fill: none; stroke: #000000; stroke-width: 0.8; stroke-linejoin: miter; stroke-linecap: square"/>
   </g>
   <g id="patch_6">
    <path d="M 62.3 34.56 
L 672.28 34.56 
" style="fill: none; stroke: #000000; stroke-width: 0.8; stroke-linejoin: miter; stroke-linecap: square"/>
   </g>
  </g>
  <g id="axes_2">
   <g id="matplotlib.axis_3">
    <g id="ytick_7">
     <g id="line2d_24">
      <defs>
       <path id="m1b500bc8c4" d="M 0 0 
L 3.5 0 
" style="stroke: #000000; stroke-width: 0.8"/>
      </defs>
      <g>
       <use xlink:href="#m1b500bc8c4" x="672.28" y="328.326525" style="stroke: #000000; stroke-width: 0.8"/>
      </g>
     </g>
     <g id="text_14">
      <!-- 0.0 -->
      <g style="fill: #06a77d" transform="translate(679.28 332.125743) scale(0.1 -0.1)">
       <use xlink:href="#DejaVuSans-30"/>
       <use xlink:href="#DejaVuSans-2e" transform="translate(63.623047 0)"/>
       <use xlink:href="#DejaVuSans-30" transform="translate(95.410156 0)"/>
      </g>
     </g>
    </g>
    <g id="ytick_8">
     <g id="line2d_25">
      <g>
       <use xlink:href="#m1b500bc8c4" x="672.28" y="264.006658" style="stroke: #000000; stroke-width: 0.8"/>
      </g>
     </g>
     <g id="text_15">
      <!-- 0.1 -->
      <g style="fill: #06a77d" transform="translate(679.28 267.805877) scale(0.1 -0.1)">
       <use xlink:href="#DejaVuSans-30"/>
       <use xlink:href="#DejaVuSans-2e" transform="translate(63.623047 0)"/>
       <use xlink:href="#DejaVuSans-31" transform="translate(95.410156 0)"/>
      </g>
     </g>
    </g>
    <g id="ytick_9">
     <g id="line2d_26">
      <g>
       <use xlink:href="#m1b500bc8c4" x="672.28" y="199.686792" style="stroke: #000000; stroke-width: 0.8"/>
      </g>
     </g>
     <g id="text_16">
      <!-- 0.2 -->
      <g style="fill: #06a77d" transform="translate(679.28 203.486011) scale(0.1 -0.1)">
       <use xlink:href="#DejaVuSans-30"/>
       <use xlink:href="#DejaVuSans-2e" transform="translate(63.623047 0)"/>
       <use xlink:href="#DejaVuSans-32" transform="translate(95.410156 0)"/>
      </g>
     </g>
    </g>
    <g id="ytick_10">
     <g id="line2d_27">
      <g>
       <use xlink:href="#m1b500bc8c4" x="672.28" y="135.366926" style="stroke: #000000; stroke-width: 0.8"/>
      </g>
     </g>
     <g id="text_17">
      <!-- 0.3 -->
      <g style="fill: #06a77d" transform="translate(679.28 139.166144) scale(0.1 -0.1)">
       <use xlink:href="#DejaVuSans-30"/>
       <use xlink:href="#DejaVuSans-2e" transform="translate(63.623047 0)"/>
       <use xlink:href="#DejaVuSans-33" transform="translate(95.410156 0)"/>
      </g>
     </g>
    </g>
    <g id="ytick_11">
     <g id="line2d_28">
      <g>
       <use xlink:href="#m1b500bc8c4" x="672.28" y="71.047059" style="stroke: #000000; stroke-width: 0.8"/>
      </g>
     </g>
     <g id="text_18">
      <!-- 0.4 -->
      <g style="fill: #06a77d" transform="translate(679.28 74.846278) scale(0.1 -0.1)">
       <use xlink:href="#DejaVuSans-30"/>
       <use xlink:href="#DejaVuSans-2e" transform="translate(63.623047 0)"/>
       <use xlink:href="#DejaVuSans-34" transform="translate(95.410156 0)"/>
      </g>
     </g>
    </g>
    <g id="text_19">
     <!-- Mean reward (training scalar — unbounded) -->
     <g style="fill: #06a77d" transform="translate(706.781563 304.714844) rotate(-90) scale(0.1 -0.1)">
      <defs>
       <path id="DejaVuSans-4d" d="M 628 4666 
L 1569 4666 
L 2759 1491 
L 3956 4666 
L 4897 4666 
L 4897 0 
L 4281 0 
L 4281 4097 
L 3078 897 
L 2444 897 
L 1241 4097 
L 1241 0 
L 628 0 
L 628 4666 
z
" transform="scale(0.015625)"/>
       <path id="DejaVuSans-77" d="M 269 3500 
L 844 3500 
L 1563 769 
L 2278 3500 
L 2956 3500 
L 3675 769 
L 4391 3500 
L 4966 3500 
L 4050 0 
L 3372 0 
L 2619 2869 
L 1863 0 
L 1184 0 
L 269 3500 
z
" transform="scale(0.015625)"/>
       <path id="DejaVuSans-64" d="M 2906 2969 
L 2906 4863 
L 3481 4863 
L 3481 0 
L 2906 0 
L 2906 525 
Q 2725 213 2448 61 
Q 2172 -91 1784 -91 
Q 1150 -91 751 415 
Q 353 922 353 1747 
Q 353 2572 751 3078 
Q 1150 3584 1784 3584 
Q 2172 3584 2448 3432 
Q 2725 3281 2906 2969 
z
M 947 1747 
Q 947 1113 1208 752 
Q 1469 391 1925 391 
Q 2381 391 2643 752 
Q 2906 1113 2906 1747 
Q 2906 2381 2643 2742 
Q 2381 3103 1925 3103 
Q 1469 3103 1208 2742 
Q 947 2381 947 1747 
z
" transform="scale(0.015625)"/>
       <path id="DejaVuSans-28" d="M 1984 4856 
Q 1566 4138 1362 3434 
Q 1159 2731 1159 2009 
Q 1159 1288 1364 580 
Q 1569 -128 1984 -844 
L 1484 -844 
Q 1016 -109 783 600 
Q 550 1309 550 2009 
Q 550 2706 781 3412 
Q 1013 4119 1484 4856 
L 1984 4856 
z
" transform="scale(0.015625)"/>
       <path id="DejaVuSans-63" d="M 3122 3366 
L 3122 2828 
Q 2878 2963 2633 3030 
Q 2388 3097 2138 3097 
Q 1578 3097 1268 2742 
Q 959 2388 959 1747 
Q 959 1106 1268 751 
Q 1578 397 2138 397 
Q 2388 397 2633 464 
Q 2878 531 3122 666 
L 3122 134 
Q 2881 22 2623 -34 
Q 2366 -91 2075 -91 
Q 1284 -91 818 406 
Q 353 903 353 1747 
Q 353 2603 823 3093 
Q 1294 3584 2113 3584 
Q 2378 3584 2631 3529 
Q 2884 3475 3122 3366 
z
" transform="scale(0.015625)"/>
       <path id="DejaVuSans-6c" d="M 603 4863 
L 1178 4863 
L 1178 0 
L 603 0 
L 603 4863 
z
" transform="scale(0.015625)"/>
       <path id="DejaVuSans-2014" d="M 313 1978 
L 6088 1978 
L 6088 1528 
L 313 1528 
L 313 1978 
z
" transform="scale(0.015625)"/>
       <path id="DejaVuSans-75" d="M 544 1381 
L 544 3500 
L 1119 3500 
L 1119 1403 
Q 1119 906 1312 657 
Q 1506 409 1894 409 
Q 2359 409 2629 706 
Q 2900 1003 2900 1516 
L 2900 3500 
L 3475 3500 
L 3475 0 
L 2900 0 
L 2900 538 
Q 2691 219 2414 64 
Q 2138 -91 1772 -91 
Q 1169 -91 856 284 
Q 544 659 544 1381 
z
M 1991 3584 
L 1991 3584 
z
" transform="scale(0.015625)"/>
       <path id="DejaVuSans-62" d="M 3116 1747 
Q 3116 2381 2855 2742 
Q 2594 3103 2138 3103 
Q 1681 3103 1420 2742 
Q 1159 2381 1159 1747 
Q 1159 1113 1420 752 
Q 1681 391 2138 391 
Q 2594 391 2855 752 
Q 3116 1113 3116 1747 
z
M 1159 2969 
Q 1341 3281 1617 3432 
Q 1894 3584 2278 3584 
Q 2916 3584 3314 3078 
Q 3713 2572 3713 1747 
Q 3713 922 3314 415 
Q 2916 -91 2278 -91 
Q 1894 -91 1617 61 
Q 1341 213 1159 525 
L 1159 0 
L 581 0 
L 581 4863 
L 1159 4863 
L 1159 2969 
z
" transform="scale(0.015625)"/>
       <path id="DejaVuSans-29" d="M 513 4856 
L 1013 4856 
Q 1481 4119 1714 3412 
Q 1947 2706 1947 2009 
Q 1947 1309 1714 600 
Q 1481 -109 1013 -844 
L 513 -844 
Q 928 -128 1133 580 
Q 1338 1288 1338 2009 
Q 1338 2731 1133 3434 
Q 928 4138 513 4856 
z
" transform="scale(0.015625)"/>
      </defs>
      <use xlink:href="#DejaVuSans-4d"/>
      <use xlink:href="#DejaVuSans-65" transform="translate(86.279297 0)"/>
      <use xlink:href="#DejaVuSans-61" transform="translate(147.802734 0)"/>
      <use xlink:href="#DejaVuSans-6e" transform="translate(209.082031 0)"/>
      <use xlink:href="#DejaVuSans-20" transform="translate(272.460938 0)"/>
      <use xlink:href="#DejaVuSans-72" transform="translate(304.248047 0)"/>
      <use xlink:href="#DejaVuSans-65" transform="translate(343.111328 0)"/>
      <use xlink:href="#DejaVuSans-77" transform="translate(404.634766 0)"/>
      <use xlink:href="#DejaVuSans-61" transform="translate(486.421875 0)"/>
      <use xlink:href="#DejaVuSans-72" transform="translate(547.701172 0)"/>
      <use xlink:href="#DejaVuSans-64" transform="translate(587.064453 0)"/>
      <use xlink:href="#DejaVuSans-20" transform="translate(650.541016 0)"/>
      <use xlink:href="#DejaVuSans-28" transform="translate(682.328125 0)"/>
      <use xlink:href="#DejaVuSans-74" transform="translate(721.341797 0)"/>
      <use xlink:href="#DejaVuSans-72" transform="translate(760.550781 0)"/>
      <use xlink:href="#DejaVuSans-61" transform="translate(801.664062 0)"/>
      <use xlink:href="#DejaVuSans-69" transform="translate(862.943359 0)"/>
      <use xlink:href="#DejaVuSans-6e" transform="translate(890.726562 0)"/>
      <use xlink:href="#DejaVuSans-69" transform="translate(954.105469 0)"/>
      <use xlink:href="#DejaVuSans-6e" transform="translate(981.888672 0)"/>
      <use xlink:href="#DejaVuSans-67" transform="translate(1045.267578 0)"/>
      <use xlink:href="#DejaVuSans-20" transform="translate(1108.744141 0)"/>
      <use xlink:href="#DejaVuSans-73" transform="translate(1140.53125 0)"/>
      <use xlink:href="#DejaVuSans-63" transform="translate(1192.630859 0)"/>
      <use xlink:href="#DejaVuSans-61" transform="translate(1247.611328 0)"/>
      <use xlink:href="#DejaVuSans-6c" transform="translate(1308.890625 0)"/>
      <use xlink:href="#DejaVuSans-61" transform="translate(1336.673828 0)"/>
      <use xlink:href="#DejaVuSans-72" transform="translate(1397.953125 0)"/>
      <use xlink:href="#DejaVuSans-20" transform="translate(1439.066406 0)"/>
      <use xlink:href="#DejaVuSans-2014" transform="translate(1470.853516 0)"/>
      <use xlink:href="#DejaVuSans-20" transform="translate(1570.853516 0)"/>
      <use xlink:href="#DejaVuSans-75" transform="translate(1602.640625 0)"/>
      <use xlink:href="#DejaVuSans-6e" transform="translate(1666.019531 0)"/>
      <use xlink:href="#DejaVuSans-62" transform="translate(1729.398438 0)"/>
      <use xlink:href="#DejaVuSans-6f" transform="translate(1792.875 0)"/>
      <use xlink:href="#DejaVuSans-75" transform="translate(1854.056641 0)"/>
      <use xlink:href="#DejaVuSans-6e" transform="translate(1917.435547 0)"/>
      <use xlink:href="#DejaVuSans-64" transform="translate(1980.814453 0)"/>
      <use xlink:href="#DejaVuSans-65" transform="translate(2044.291016 0)"/>
      <use xlink:href="#DejaVuSans-64" transform="translate(2105.814453 0)"/>
      <use xlink:href="#DejaVuSans-29" transform="translate(2169.291016 0)"/>
     </g>
    </g>
   </g>
   <g id="line2d_29">
    <path d="M 90.026364 299.157466 
L 96.257007 339.518182 
L 102.487651 300.829781 
L 108.718294 309.673763 
L 114.948938 304.721134 
L 121.179581 313.983195 
L 127.410225 252.654203 
L 133.640868 280.215265 
L 139.871512 328.744604 
L 146.102155 284.749815 
L 152.332799 267.898012 
L 158.563442 229.949292 
L 164.794086 256.609874 
L 171.024729 245.482538 
L 177.255373 192.804567 
L 183.486016 201.712868 
L 189.71666 199.107915 
L 195.947303 227.505134 
L 202.177947 189.299135 
L 208.40859 167.398217 
L 214.639234 194.476881 
L 220.869877 148.841933 
L 227.100521 187.498175 
L 233.331164 120.316079 
L 239.561808 142.152667 
L 245.792451 138.004042 
L 252.023095 114.334332 
L 258.253739 85.904949 
L 264.484382 129.449494 
L 270.715026 107.805863 
L 276.945669 58.440363 
L 283.176313 93.140931 
L 289.406956 107.64506 
L 295.6376 98.608118 
L 301.868243 101.438194 
L 308.098887 78.926243 
L 314.32953 114.623762 
L 320.560174 117.678956 
L 326.790817 87.287818 
L 333.021461 103.721552 
L 339.252104 97.836278 
L 345.482748 84.940144 
L 351.713391 79.472961 
L 357.944035 105.329547 
L 364.174678 76.256963 
L 370.405322 76.77153 
L 376.635965 116.649842 
L 382.866609 99.572915 
L 389.097252 68.088341 
L 395.327896 87.094864 
L 401.558539 113.047924 
L 407.789183 108.4169 
L 414.019826 83.846709 
L 420.25047 74.198727 
L 426.481113 63.843235 
L 432.711757 116.682002 
L 438.9424 56.028362 
L 445.173044 101.277394 
L 451.403687 55.610287 
L 457.634331 57.700677 
L 463.864974 56.510765 
L 470.095618 64.004031 
L 476.326261 49.081818 
L 482.556905 58.183083 
L 488.787549 64.615071 
L 495.018192 69.374741 
L 501.248836 76.385601 
L 507.479479 69.278261 
L 513.710123 76.642885 
L 519.940766 108.899294 
L 526.17141 75.742403 
L 532.402053 70.564653 
L 538.632697 76.096167 
L 544.86334 94.459484 
L 551.093984 76.128325 
L 557.324627 76.256966 
L 563.555271 80.405596 
L 569.785914 68.892339 
L 576.016558 84.875829 
L 582.247201 69.278261 
L 588.477845 53.294771 
L 594.708488 95.070525 
L 600.939132 82.110072 
L 607.169775 90.825418 
L 613.400419 80.791518 
L 619.631062 69.278257 
L 625.861706 62.460351 
L 632.092349 98.029247 
L 638.322993 65.676345 
L 644.553636 114.945364 
" clip-path="url(#pe8f82500bd)" style="fill: none; stroke: #06a77d; stroke-width: 2; stroke-linecap: square"/>
   </g>
   <g id="patch_7">
    <path d="M 62.3 354.04 
L 62.3 34.56 
" style="fill: none; stroke: #000000; stroke-width: 0.8; stroke-linejoin: miter; stroke-linecap: square"/>
   </g>
   <g id="patch_8">
    <path d="M 672.28 354.04 
L 672.28 34.56 
" style="fill: none; stroke: #000000; stroke-width: 0.8; stroke-linejoin: miter; stroke-linecap: square"/>
   </g>
   <g id="patch_9">
    <path d="M 62.3 354.04 
L 672.28 354.04 
" style="fill: none; stroke: #000000; stroke-width: 0.8; stroke-linejoin: miter; stroke-linecap: square"/>
   </g>
   <g id="patch_10">
    <path d="M 62.3 34.56 
L 672.28 34.56 
" style="fill: none; stroke: #000000; stroke-width: 0.8; stroke-linejoin: miter; stroke-linecap: square"/>
   </g>
   <g id="text_20">
    <!-- Note: training scalar is unbounded. -->
    <g style="fill: #808080" transform="translate(74.4996 327.987969) scale(0.09 -0.09)">
     <defs>
      <path id="DejaVuSans-4e" d="M 628 4666 
L 1478 4666 
L 3547 763 
L 3547 4666 
L 4159 4666 
L 4159 0 
L 3309 0 
L 1241 3903 
L 1241 0 
L 628 0 
L 628 4666 
z
" transform="scale(0.015625)"/>
      <path id="DejaVuSans-3a" d="M 750 794 
L 1409 794 
L 1409 0 
L 750 0 
L 750 794 
z
M 750 3309 
L 1409 3309 
L 1409 2516 
L 750 2516 
L 750 3309 
z
" transform="scale(0.015625)"/>
     </defs>
     <use xlink:href="#DejaVuSans-4e"/>
     <use xlink:href="#DejaVuSans-6f" transform="translate(74.804688 0)"/>
     <use xlink:href="#DejaVuSans-74" transform="translate(135.986328 0)"/>
     <use xlink:href="#DejaVuSans-65" transform="translate(175.195312 0)"/>
     <use xlink:href="#DejaVuSans-3a" transform="translate(236.71875 0)"/>
     <use xlink:href="#DejaVuSans-20" transform="translate(270.410156 0)"/>
     <use xlink:href="#DejaVuSans-74" transform="translate(302.197266 0)"/>
     <use xlink:href="#DejaVuSans-72" transform="translate(341.40625 0)"/>
     <use xlink:href="#DejaVuSans-61" transform="translate(382.519531 0)"/>
     <use xlink:href="#DejaVuSans-69" transform="translate(443.798828 0)"/>
     <use xlink:href="#DejaVuSans-6e" transform="translate(471.582031 0)"/>
     <use xlink:href="#DejaVuSans-69" transform="translate(534.960938 0)"/>
     <use xlink:href="#DejaVuSans-6e" transform="translate(562.744141 0)"/>
     <use xlink:href="#DejaVuSans-67" transform="translate(626.123047 0)"/>
     <use xlink:href="#DejaVuSans-20" transform="translate(689.599609 0)"/>
     <use xlink:href="#DejaVuSans-73" transform="translate(721.386719 0)"/>
     <use xlink:href="#DejaVuSans-63" transform="translate(773.486328 0)"/>
     <use xlink:href="#DejaVuSans-61" transform="translate(828.466797 0)"/>
     <use xlink:href="#DejaVuSans-6c" transform="translate(889.746094 0)"/>
     <use xlink:href="#DejaVuSans-61" transform="translate(917.529297 0)"/>
     <use xlink:href="#DejaVuSans-72" transform="translate(978.808594 0)"/>
     <use xlink:href="#DejaVuSans-20" transform="translate(1019.921875 0)"/>
     <use xlink:href="#DejaVuSans-69" transform="translate(1051.708984 0)"/>
     <use xlink:href="#DejaVuSans-73" transform="translate(1079.492188 0)"/>
     <use xlink:href="#DejaVuSans-20" transform="translate(1131.591797 0)"/>
     <use xlink:href="#DejaVuSans-75" transform="translate(1163.378906 0)"/>
     <use xlink:href="#DejaVuSans-6e" transform="translate(1226.757812 0)"/>
     <use xlink:href="#DejaVuSans-62" transform="translate(1290.136719 0)"/>
     <use xlink:href="#DejaVuSans-6f" transform="translate(1353.613281 0)"/>
     <use xlink:href="#DejaVuSans-75" transform="translate(1414.794922 0)"/>
     <use xlink:href="#DejaVuSans-6e" transform="translate(1478.173828 0)"/>
     <use xlink:href="#DejaVuSans-64" transform="translate(1541.552734 0)"/>
     <use xlink:href="#DejaVuSans-65" transform="translate(1605.029297 0)"/>
     <use xlink:href="#DejaVuSans-64" transform="translate(1666.552734 0)"/>
     <use xlink:href="#DejaVuSans-2e" transform="translate(1730.029297 0)"/>
    </g>
    <!-- See eval table for [0,1] clamped scores. -->
    <g style="fill: #808080" transform="translate(74.4996 338.066) scale(0.09 -0.09)">
     <defs>
      <path id="DejaVuSans-53" d="M 3425 4513 
L 3425 3897 
Q 3066 4069 2747 4153 
Q 2428 4238 2131 4238 
Q 1616 4238 1336 4038 
Q 1056 3838 1056 3469 
Q 1056 3159 1242 3001 
Q 1428 2844 1947 2747 
L 2328 2669 
Q 3034 2534 3370 2195 
Q 3706 1856 3706 1288 
Q 3706 609 3251 259 
Q 2797 -91 1919 -91 
Q 1588 -91 1214 -16 
Q 841 59 441 206 
L 441 856 
Q 825 641 1194 531 
Q 1563 422 1919 422 
Q 2459 422 2753 634 
Q 3047 847 3047 1241 
Q 3047 1584 2836 1778 
Q 2625 1972 2144 2069 
L 1759 2144 
Q 1053 2284 737 2584 
Q 422 2884 422 3419 
Q 422 4038 858 4394 
Q 1294 4750 2059 4750 
Q 2388 4750 2728 4690 
Q 3069 4631 3425 4513 
z
" transform="scale(0.015625)"/>
      <path id="DejaVuSans-76" d="M 191 3500 
L 800 3500 
L 1894 563 
L 2988 3500 
L 3597 3500 
L 2284 0 
L 1503 0 
L 191 3500 
z
" transform="scale(0.015625)"/>
      <path id="DejaVuSans-66" d="M 2375 4863 
L 2375 4384 
L 1825 4384 
Q 1516 4384 1395 4259 
Q 1275 4134 1275 3809 
L 1275 3500 
L 2222 3500 
L 2222 3053 
L 1275 3053 
L 1275 0 
L 697 0 
L 697 3053 
L 147 3053 
L 147 3500 
L 697 3500 
L 697 3744 
Q 697 4328 969 4595 
Q 1241 4863 1831 4863 
L 2375 4863 
z
" transform="scale(0.015625)"/>
      <path id="DejaVuSans-5b" d="M 550 4863 
L 1875 4863 
L 1875 4416 
L 1125 4416 
L 1125 -397 
L 1875 -397 
L 1875 -844 
L 550 -844 
L 550 4863 
z
" transform="scale(0.015625)"/>
      <path id="DejaVuSans-2c" d="M 750 794 
L 1409 794 
L 1409 256 
L 897 -744 
L 494 -744 
L 750 256 
L 750 794 
z
" transform="scale(0.015625)"/>
      <path id="DejaVuSans-5d" d="M 1947 4863 
L 1947 -844 
L 622 -844 
L 622 -397 
L 1369 -397 
L 1369 4416 
L 622 4416 
L 622 4863 
L 1947 4863 
z
" transform="scale(0.015625)"/>
      <path id="DejaVuSans-6d" d="M 3328 2828 
Q 3544 3216 3844 3400 
Q 4144 3584 4550 3584 
Q 5097 3584 5394 3201 
Q 5691 2819 5691 2113 
L 5691 0 
L 5113 0 
L 5113 2094 
Q 5113 2597 4934 2840 
Q 4756 3084 4391 3084 
Q 3944 3084 3684 2787 
Q 3425 2491 3425 1978 
L 3425 0 
L 2847 0 
L 2847 2094 
Q 2847 2600 2669 2842 
Q 2491 3084 2119 3084 
Q 1678 3084 1418 2786 
Q 1159 2488 1159 1978 
L 1159 0 
L 581 0 
L 581 3500 
L 1159 3500 
L 1159 2956 
Q 1356 3278 1631 3431 
Q 1906 3584 2284 3584 
Q 2666 3584 2933 3390 
Q 3200 3197 3328 2828 
z
" transform="scale(0.015625)"/>
     </defs>
     <use xlink:href="#DejaVuSans-53"/>
     <use xlink:href="#DejaVuSans-65" transform="translate(63.476562 0)"/>
     <use xlink:href="#DejaVuSans-65" transform="translate(125 0)"/>
     <use xlink:href="#DejaVuSans-20" transform="translate(186.523438 0)"/>
     <use xlink:href="#DejaVuSans-65" transform="translate(218.310547 0)"/>
     <use xlink:href="#DejaVuSans-76" transform="translate(279.833984 0)"/>
     <use xlink:href="#DejaVuSans-61" transform="translate(339.013672 0)"/>
     <use xlink:href="#DejaVuSans-6c" transform="translate(400.292969 0)"/>
     <use xlink:href="#DejaVuSans-20" transform="translate(428.076172 0)"/>
     <use xlink:href="#DejaVuSans-74" transform="translate(459.863281 0)"/>
     <use xlink:href="#DejaVuSans-61" transform="translate(499.072266 0)"/>
     <use xlink:href="#DejaVuSans-62" transform="translate(560.351562 0)"/>
     <use xlink:href="#DejaVuSans-6c" transform="translate(623.828125 0)"/>
     <use xlink:href="#DejaVuSans-65" transform="translate(651.611328 0)"/>
     <use xlink:href="#DejaVuSans-20" transform="translate(713.134766 0)"/>
     <use xlink:href="#DejaVuSans-66" transform="translate(744.921875 0)"/>
     <use xlink:href="#DejaVuSans-6f" transform="translate(780.126953 0)"/>
     <use xlink:href="#DejaVuSans-72" transform="translate(841.308594 0)"/>
     <use xlink:href="#DejaVuSans-20" transform="translate(882.421875 0)"/>
     <use xlink:href="#DejaVuSans-5b" transform="translate(914.208984 0)"/>
     <use xlink:href="#DejaVuSans-30" transform="translate(953.222656 0)"/>
     <use xlink:href="#DejaVuSans-2c" transform="translate(1016.845703 0)"/>
     <use xlink:href="#DejaVuSans-31" transform="translate(1048.632812 0)"/>
     <use xlink:href="#DejaVuSans-5d" transform="translate(1112.255859 0)"/>
     <use xlink:href="#DejaVuSans-20" transform="translate(1151.269531 0)"/>
     <use xlink:href="#DejaVuSans-63" transform="translate(1183.056641 0)"/>
     <use xlink:href="#DejaVuSans-6c" transform="translate(1238.037109 0)"/>
     <use xlink:href="#DejaVuSans-61" transform="translate(1265.820312 0)"/>
     <use xlink:href="#DejaVuSans-6d" transform="translate(1327.099609 0)"/>
     <use xlink:href="#DejaVuSans-70" transform="translate(1424.511719 0)"/>
     <use xlink:href="#DejaVuSans-65" transform="translate(1487.988281 0)"/>
     <use xlink:href="#DejaVuSans-64" transform="translate(1549.511719 0)"/>
     <use xlink:href="#DejaVuSans-20" transform="translate(1612.988281 0)"/>
     <use xlink:href="#DejaVuSans-73" transform="translate(1644.775391 0)"/>
     <use xlink:href="#DejaVuSans-63" transform="translate(1696.875 0)"/>
     <use xlink:href="#DejaVuSans-6f" transform="translate(1751.855469 0)"/>
     <use xlink:href="#DejaVuSans-72" transform="translate(1813.037109 0)"/>
     <use xlink:href="#DejaVuSans-65" transform="translate(1851.900391 0)"/>
     <use xlink:href="#DejaVuSans-73" transform="translate(1913.423828 0)"/>
     <use xlink:href="#DejaVuSans-2e" transform="translate(1965.523438 0)"/>
    </g>
   </g>
  </g>
  <g id="text_21">
   <!-- DebateFloor GRPO Training Progress (training scalar — not eval score) -->
   <g transform="translate(149.270625 17.038125) scale(0.12 -0.12)">
    <defs>
     <path id="DejaVuSans-44" d="M 1259 4147 
L 1259 519 
L 2022 519 
Q 2988 519 3436 956 
Q 3884 1394 3884 2338 
Q 3884 3275 3436 3711 
Q 2988 4147 2022 4147 
L 1259 4147 
z
M 628 4666 
L 1925 4666 
Q 3281 4666 3915 4102 
Q 4550 3538 4550 2338 
Q 4550 1131 3912 565 
Q 3275 0 1925 0 
L 628 0 
L 628 4666 
z
" transform="scale(0.015625)"/>
     <path id="DejaVuSans-46" d="M 628 4666 
L 3309 4666 
L 3309 4134 
L 1259 4134 
L 1259 2759 
L 3109 2759 
L 3109 2228 
L 1259 2228 
L 1259 0 
L 628 0 
L 628 4666 
z
" transform="scale(0.015625)"/>
     <path id="DejaVuSans-47" d="M 3809 666 
L 3809 1919 
L 2778 1919 
L 2778 2438 
L 4434 2438 
L 4434 434 
Q 4069 175 3628 42 
Q 3188 -91 2688 -91 
Q 1594 -91 976 548 
Q 359 1188 359 2328 
Q 359 3472 976 4111 
Q 1594 4750 2688 4750 
Q 3144 4750 3555 4637 
Q 3966 4525 4313 4306 
L 4313 3634 
Q 3963 3931 3569 4081 
Q 3175 4231 2741 4231 
Q 1884 4231 1454 3753 
Q 1025 3275 1025 2328 
Q 1025 1384 1454 906 
Q 1884 428 2741 428 
Q 3075 428 3337 486 
Q 3600 544 3809 666 
z
" transform="scale(0.015625)"/>
     <path id="DejaVuSans-52" d="M 2841 2188 
Q 3044 2119 3236 1894 
Q 3428 1669 3622 1275 
L 4263 0 
L 3584 0 
L 2988 1197 
Q 2756 1666 2539 1819 
Q 2322 1972 1947 1972 
L 1259 1972 
L 1259 0 
L 628 0 
L 628 4666 
L 2053 4666 
Q 2853 4666 3247 4331 
Q 3641 3997 3641 3322 
Q 3641 2881 3436 2590 
Q 3231 2300 2841 2188 
z
M 1259 4147 
L 1259 2491 
L 2053 2491 
Q 2509 2491 2742 2702 
Q 2975 2913 2975 3322 
Q 2975 3731 2742 3939 
Q 2509 4147 2053 4147 
L 1259 4147 
z
" transform="scale(0.015625)"/>
     <path id="DejaVuSans-50" d="M 1259 4147 
L 1259 2394 
L 2053 2394 
Q 2494 2394 2734 2622 
Q 2975 2850 2975 3272 
Q 2975 3691 2734 3919 
Q 2494 4147 2053 4147 
L 1259 4147 
z
M 628 4666 
L 2053 4666 
Q 2838 4666 3239 4311 
Q 3641 3956 3641 3272 
Q 3641 2581 3239 2228 
Q 2838 1875 2053 1875 
L 1259 1875 
L 1259 0 
L 628 0 
L 628 4666 
z
" transform="scale(0.015625)"/>
     <path id="DejaVuSans-4f" d="M 2522 4238 
Q 1834 4238 1429 3725 
Q 1025 3213 1025 2328 
Q 1025 1447 1429 934 
Q 1834 422 2522 422 
Q 3209 422 3611 934 
Q 4013 1447 4013 2328 
Q 4013 3213 3611 3725 
Q 3209 4238 2522 4238 
z
M 2522 4750 
Q 3503 4750 4090 4092 
Q 4678 3434 4678 2328 
Q 4678 1225 4090 567 
Q 3503 -91 2522 -91 
Q 1538 -91 948 565 
Q 359 1222 359 2328 
Q 359 3434 948 4092 
Q 1538 4750 2522 4750 
z
" transform="scale(0.015625)"/>
    </defs>
    <use xlink:href="#DejaVuSans-44"/>
    <use xlink:href="#DejaVuSans-65" transform="translate(77.001953 0)"/>
    <use xlink:href="#DejaVuSans-62" transform="translate(138.525391 0)"/>
    <use xlink:href="#DejaVuSans-61" transform="translate(202.001953 0)"/>
    <use xlink:href="#DejaVuSans-74" transform="translate(263.28125 0)"/>
    <use xlink:href="#DejaVuSans-65" transform="translate(302.490234 0)"/>
    <use xlink:href="#DejaVuSans-46" transform="translate(364.013672 0)"/>
    <use xlink:href="#DejaVuSans-6c" transform="translate(421.533203 0)"/>
    <use xlink:href="#DejaVuSans-6f" transform="translate(449.316406 0)"/>
    <use xlink:href="#DejaVuSans-6f" transform="translate(510.498047 0)"/>
    <use xlink:href="#DejaVuSans-72" transform="translate(571.679688 0)"/>
    <use xlink:href="#DejaVuSans-20" transform="translate(612.792969 0)"/>
    <use xlink:href="#DejaVuSans-47" transform="translate(644.580078 0)"/>
    <use xlink:href="#DejaVuSans-52" transform="translate(722.070312 0)"/>
    <use xlink:href="#DejaVuSans-50" transform="translate(791.552734 0)"/>
    <use xlink:href="#DejaVuSans-4f" transform="translate(851.855469 0)"/>
    <use xlink:href="#DejaVuSans-20" transform="translate(930.566406 0)"/>
    <use xlink:href="#DejaVuSans-54" transform="translate(962.353516 0)"/>
    <use xlink:href="#DejaVuSans-72" transform="translate(1008.6875 0)"/>
    <use xlink:href="#DejaVuSans-61" transform="translate(1049.800781 0)"/>
    <use xlink:href="#DejaVuSans-69" transform="translate(1111.080078 0)"/>
    <use xlink:href="#DejaVuSans-6e" transform="translate(1138.863281 0)"/>
    <use xlink:href="#DejaVuSans-69" transform="translate(1202.242188 0)"/>
    <use xlink:href="#DejaVuSans-6e" transform="translate(1230.025391 0)"/>
    <use xlink:href="#DejaVuSans-67" transform="translate(1293.404297 0)"/>
    <use xlink:href="#DejaVuSans-20" transform="translate(1356.880859 0)"/>
    <use xlink:href="#DejaVuSans-50" transform="translate(1388.667969 0)"/>
    <use xlink:href="#DejaVuSans-72" transform="translate(1447.220703 0)"/>
    <use xlink:href="#DejaVuSans-6f" transform="translate(1486.083984 0)"/>
    <use xlink:href="#DejaVuSans-67" transform="translate(1547.265625 0)"/>
    <use xlink:href="#DejaVuSans-72" transform="translate(1610.742188 0)"/>
    <use xlink:href="#DejaVuSans-65" transform="translate(1649.605469 0)"/>
    <use xlink:href="#DejaVuSans-73" transform="translate(1711.128906 0)"/>
    <use xlink:href="#DejaVuSans-73" transform="translate(1763.228516 0)"/>
    <use xlink:href="#DejaVuSans-20" transform="translate(1815.328125 0)"/>
    <use xlink:href="#DejaVuSans-28" transform="translate(1847.115234 0)"/>
    <use xlink:href="#DejaVuSans-74" transform="translate(1886.128906 0)"/>
    <use xlink:href="#DejaVuSans-72" transform="translate(1925.337891 0)"/>
    <use xlink:href="#DejaVuSans-61" transform="translate(1966.451172 0)"/>
    <use xlink:href="#DejaVuSans-69" transform="translate(2027.730469 0)"/>
    <use xlink:href="#DejaVuSans-6e" transform="translate(2055.513672 0)"/>
    <use xlink:href="#DejaVuSans-69" transform="translate(2118.892578 0)"/>
    <use xlink:href="#DejaVuSans-6e" transform="translate(2146.675781 0)"/>
    <use xlink:href="#DejaVuSans-67" transform="translate(2210.054688 0)"/>
    <use xlink:href="#DejaVuSans-20" transform="translate(2273.53125 0)"/>
    <use xlink:href="#DejaVuSans-73" transform="translate(2305.318359 0)"/>
    <use xlink:href="#DejaVuSans-63" transform="translate(2357.417969 0)"/>
    <use xlink:href="#DejaVuSans-61" transform="translate(2412.398438 0)"/>
    <use xlink:href="#DejaVuSans-6c" transform="translate(2473.677734 0)"/>
    <use xlink:href="#DejaVuSans-61" transform="translate(2501.460938 0)"/>
    <use xlink:href="#DejaVuSans-72" transform="translate(2562.740234 0)"/>
    <use xlink:href="#DejaVuSans-20" transform="translate(2603.853516 0)"/>
    <use xlink:href="#DejaVuSans-2014" transform="translate(2635.640625 0)"/>
    <use xlink:href="#DejaVuSans-20" transform="translate(2735.640625 0)"/>
    <use xlink:href="#DejaVuSans-6e" transform="translate(2767.427734 0)"/>
    <use xlink:href="#DejaVuSans-6f" transform="translate(2830.806641 0)"/>
    <use xlink:href="#DejaVuSans-74" transform="translate(2891.988281 0)"/>
    <use xlink:href="#DejaVuSans-20" transform="translate(2931.197266 0)"/>
    <use xlink:href="#DejaVuSans-65" transform="translate(2962.984375 0)"/>
    <use xlink:href="#DejaVuSans-76" transform="translate(3024.507812 0)"/>
    <use xlink:href="#DejaVuSans-61" transform="translate(3083.6875 0)"/>
    <use xlink:href="#DejaVuSans-6c" transform="translate(3144.966797 0)"/>
    <use xlink:href="#DejaVuSans-20" transform="translate(3172.75 0)"/>
    <use xlink:href="#DejaVuSans-73" transform="translate(3204.537109 0)"/>
    <use xlink:href="#DejaVuSans-63" transform="translate(3256.636719 0)"/>
    <use xlink:href="#DejaVuSans-6f" transform="translate(3311.617188 0)"/>
    <use xlink:href="#DejaVuSans-72" transform="translate(3372.798828 0)"/>
    <use xlink:href="#DejaVuSans-65" transform="translate(3411.662109 0)"/>
    <use xlink:href="#DejaVuSans-29" transform="translate(3473.185547 0)"/>
   </g>
  </g>
 </g>
 <defs>
  <clipPath id="pe8f82500bd">
   <rect x="62.3" y="34.56" width="609.98" height="319.48"/>
  </clipPath>
 </defs>
</svg>
