<?xml version="1.0" encoding="utf-8" standalone="no"?>
<!DOCTYPE svg PUBLIC "-//W3C//DTD SVG 1.1//EN"
  "http://www.w3.org/Graphics/SVG/1.1/DTD/svg11.dtd">
<svg xmlns:xlink="http://www.w3.org/1999/xlink" width="720pt" height="396pt" viewBox="0 0 720 396" xmlns="http://www.w3.org/2000/svg" version="1.1">
 <metadata>
  <rdf:RDF xmlns:dc="http://purl.org/dc/elements/1.1/" xmlns:cc="http://creativecommons.org/ns#" xmlns:rdf="http://www.w3.org/1999/02/22-rdf-syntax-ns#">
   <cc:Work>
    <dc:type rdf:resource="http://purl.org/dc/dcmitype/StillImage"/>
    <dc:date>2026-04-25T16:28:30.989336</dc:date>
    <dc:format>image/svg+xml</dc:format>
    <dc:creator>
     <cc:Agent>
      <dc:title>Matplotlib v3.10.8, https://matplotlib.org/</dc:title>
     </cc:Agent>
    </dc:creator>
   </cc:Work>
  </rdf:RDF>
 </metadata>
 <defs>
  <style type="text/css">*{stroke-linejoin: round; stroke-linecap: butt}</style>
 </defs>
 <g id="figure_1">
  <g id="patch_1">
   <path d="M 0 396 
L 720 396 
L 720 0 
L 0 0 
z
" style="fill: #ffffff"/>
  </g>
  <g id="axes_1">
   <g id="patch_2">
    <path d="M 63.02 353.32 
L 671.56 353.32 
L 671.56 34.56 
L 63.02 34.56 
z
" style="fill: #f9f9f9"/>
   </g>
   <g id="matplotlib.axis_1">
    <g id="xtick_1">
     <g id="line2d_1">
      <path d="M 84.464974 353.32 
L 84.464974 34.56 
" clip-path="url(#p7d72e86408)" style="fill: none; stroke-dasharray: 2.96,1.28; stroke-dashoffset: 0; stroke: #b0b0b0; stroke-opacity: 0.2; stroke-width: 0.8"/>
     </g>
     <g id="line2d_2">
      <defs>
       <path id="mcdd20b1444" d="M 0 0 
L 0 3.5 
" style="stroke: #000000; stroke-width: 0.8"/>
      </defs>
      <g>
       <use xlink:href="#mcdd20b1444" x="84.464974" y="353.32" style="stroke: #000000; stroke-width: 0.8"/>
      </g>
     </g>
     <g id="text_1">
      <!-- 0 -->
      <g transform="translate(81.283724 367.918437) scale(0.1 -0.1)">
       <defs>
        <path id="DejaVuSans-30" d="M 2034 4250 
Q 1547 4250 1301 3770 
Q 1056 3291 1056 2328 
Q 1056 1369 1301 889 
Q 1547 409 2034 409 
Q 2525 409 2770 889 
Q 3016 1369 3016 2328 
Q 3016 3291 2770 3770 
Q 2525 4250 2034 4250 
z
M 2034 4750 
Q 2819 4750 3233 4129 
Q 3647 3509 3647 2328 
Q 3647 1150 3233 529 
Q 2819 -91 2034 -91 
Q 1250 -91 836 529 
Q 422 1150 422 2328 
Q 422 3509 836 4129 
Q 1250 4750 2034 4750 
z
" transform="scale(0.015625)"/>
       </defs>
       <use xlink:href="#DejaVuSans-30"/>
      </g>
     </g>
    </g>
    <g id="xtick_2">
     <g id="line2d_3">
      <path d="M 208.783667 353.32 
L 208.783667 34.56 
" clip-path="url(#p7d72e86408)" style="fill: none; stroke-dasharray: 2.96,1.28; stroke-dashoffset: 0; stroke: #b0b0b0; stroke-opacity: 0.2; stroke-width: 0.8"/>
     </g>
     <g id="line2d_4">
      <g>
       <use xlink:href="#mcdd20b1444" x="208.783667" y="353.32" style="stroke: #000000; stroke-width: 0.8"/>
      </g>
     </g>
     <g id="text_2">
      <!-- 100 -->
      <g transform="translate(199.239917 367.918437) scale(0.1 -0.1)">
       <defs>
        <path id="DejaVuSans-31" d="M 794 531 
L 1825 531 
L 1825 4091 
L 703 3866 
L 703 4441 
L 1819 4666 
L 2450 4666 
L 2450 531 
L 3481 531 
L 3481 0 
L 794 0 
L 794 531 
z
" transform="scale(0.015625)"/>
       </defs>
       <use xlink:href="#DejaVuSans-31"/>
       <use xlink:href="#DejaVuSans-30" transform="translate(63.623047 0)"/>
       <use xlink:href="#DejaVuSans-30" transform="translate(127.246094 0)"/>
      </g>
     </g>
    </g>
    <g id="xtick_3">
     <g id="line2d_5">
      <path d="M 333.10236 353.32 
L 333.10236 34.56 
" clip-path="url(#p7d72e86408)" style="fill: none; stroke-dasharray: 2.96,1.28; stroke-dashoffset: 0; stroke: #b0b0b0; stroke-opacity: 0.2; stroke-width: 0.8"/>
     </g>
     <g id="line2d_6">
      <g>
       <use xlink:href="#mcdd20b1444" x="333.10236" y="353.32" style="stroke: #000000; stroke-width: 0.8"/>
      </g>
     </g>
     <g id="text_3">
      <!-- 200 -->
      <g transform="translate(323.55861 367.918437) scale(0.1 -0.1)">
       <defs>
        <path id="DejaVuSans-32" d="M 1228 531 
L 3431 531 
L 3431 0 
L 469 0 
L 469 531 
Q 828 903 1448 1529 
Q 2069 2156 2228 2338 
Q 2531 2678 2651 2914 
Q 2772 3150 2772 3378 
Q 2772 3750 2511 3984 
Q 2250 4219 1831 4219 
Q 1534 4219 1204 4116 
Q 875 4013 500 3803 
L 500 4441 
Q 881 4594 1212 4672 
Q 1544 4750 1819 4750 
Q 2544 4750 2975 4387 
Q 3406 4025 3406 3419 
Q 3406 3131 3298 2873 
Q 3191 2616 2906 2266 
Q 2828 2175 2409 1742 
Q 1991 1309 1228 531 
z
" transform="scale(0.015625)"/>
       </defs>
       <use xlink:href="#DejaVuSans-32"/>
       <use xlink:href="#DejaVuSans-30" transform="translate(63.623047 0)"/>
       <use xlink:href="#DejaVuSans-30" transform="translate(127.246094 0)"/>
      </g>
     </g>
    </g>
    <g id="xtick_4">
     <g id="line2d_7">
      <path d="M 457.421052 353.32 
L 457.421052 34.56 
" clip-path="url(#p7d72e86408)" style="fill: none; stroke-dasharray: 2.96,1.28; stroke-dashoffset: 0; stroke: #b0b0b0; stroke-opacity: 0.2; stroke-width: 0.8"/>
     </g>
     <g id="line2d_8">
      <g>
       <use xlink:href="#mcdd20b1444" x="457.421052" y="353.32" style="stroke: #000000; stroke-width: 0.8"/>
      </g>
     </g>
     <g id="text_4">
      <!-- 300 -->
      <g transform="translate(447.877302 367.918437) scale(0.1 -0.1)">
       <defs>
        <path id="DejaVuSans-33" d="M 2597 2516 
Q 3050 2419 3304 2112 
Q 3559 1806 3559 1356 
Q 3559 666 3084 287 
Q 2609 -91 1734 -91 
Q 1441 -91 1130 -33 
Q 819 25 488 141 
L 488 750 
Q 750 597 1062 519 
Q 1375 441 1716 441 
Q 2309 441 2620 675 
Q 2931 909 2931 1356 
Q 2931 1769 2642 2001 
Q 2353 2234 1838 2234 
L 1294 2234 
L 1294 2753 
L 1863 2753 
Q 2328 2753 2575 2939 
Q 2822 3125 2822 3475 
Q 2822 3834 2567 4026 
Q 2313 4219 1838 4219 
Q 1578 4219 1281 4162 
Q 984 4106 628 3988 
L 628 4550 
Q 988 4650 1302 4700 
Q 1616 4750 1894 4750 
Q 2613 4750 3031 4423 
Q 3450 4097 3450 3541 
Q 3450 3153 3228 2886 
Q 3006 2619 2597 2516 
z
" transform="scale(0.015625)"/>
       </defs>
       <use xlink:href="#DejaVuSans-33"/>
       <use xlink:href="#DejaVuSans-30" transform="translate(63.623047 0)"/>
       <use xlink:href="#DejaVuSans-30" transform="translate(127.246094 0)"/>
      </g>
     </g>
    </g>
    <g id="xtick_5">
     <g id="line2d_9">
      <path d="M 581.739745 353.32 
L 581.739745 34.56 
" clip-path="url(#p7d72e86408)" style="fill: none; stroke-dasharray: 2.96,1.28; stroke-dashoffset: 0; stroke: #b0b0b0; stroke-opacity: 0.2; stroke-width: 0.8"/>
     </g>
     <g id="line2d_10">
      <g>
       <use xlink:href="#mcdd20b1444" x="581.739745" y="353.32" style="stroke: #000000; stroke-width: 0.8"/>
      </g>
     </g>
     <g id="text_5">
      <!-- 400 -->
      <g transform="translate(572.195995 367.918437) scale(0.1 -0.1)">
       <defs>
        <path id="DejaVuSans-34" d="M 2419 4116 
L 825 1625 
L 2419 1625 
L 2419 4116 
z
M 2253 4666 
L 3047 4666 
L 3047 1625 
L 3713 1625 
L 3713 1100 
L 3047 1100 
L 3047 0 
L 2419 0 
L 2419 1100 
L 313 1100 
L 313 1709 
L 2253 4666 
z
" transform="scale(0.015625)"/>
       </defs>
       <use xlink:href="#DejaVuSans-34"/>
       <use xlink:href="#DejaVuSans-30" transform="translate(63.623047 0)"/>
       <use xlink:href="#DejaVuSans-30" transform="translate(127.246094 0)"/>
      </g>
     </g>
    </g>
    <g id="text_6">
     <!-- Training step -->
     <g transform="translate(331.946484 382.356406) scale(0.11 -0.11)">
      <defs>
       <path id="DejaVuSans-54" d="M -19 4666 
L 3928 4666 
L 3928 4134 
L 2272 4134 
L 2272 0 
L 1638 0 
L 1638 4134 
L -19 4134 
L -19 4666 
z
" transform="scale(0.015625)"/>
       <path id="DejaVuSans-72" d="M 2631 2963 
Q 2534 3019 2420 3045 
Q 2306 3072 2169 3072 
Q 1681 3072 1420 2755 
Q 1159 2438 1159 1844 
L 1159 0 
L 581 0 
L 581 3500 
L 1159 3500 
L 1159 2956 
Q 1341 3275 1631 3429 
Q 1922 3584 2338 3584 
Q 2397 3584 2469 3576 
Q 2541 3569 2628 3553 
L 2631 2963 
z
" transform="scale(0.015625)"/>
       <path id="DejaVuSans-61" d="M 2194 1759 
Q 1497 1759 1228 1600 
Q 959 1441 959 1056 
Q 959 750 1161 570 
Q 1363 391 1709 391 
Q 2188 391 2477 730 
Q 2766 1069 2766 1631 
L 2766 1759 
L 2194 1759 
z
M 3341 1997 
L 3341 0 
L 2766 0 
L 2766 531 
Q 2569 213 2275 61 
Q 1981 -91 1556 -91 
Q 1019 -91 701 211 
Q 384 513 384 1019 
Q 384 1609 779 1909 
Q 1175 2209 1959 2209 
L 2766 2209 
L 2766 2266 
Q 2766 2663 2505 2880 
Q 2244 3097 1772 3097 
Q 1472 3097 1187 3025 
Q 903 2953 641 2809 
L 641 3341 
Q 956 3463 1253 3523 
Q 1550 3584 1831 3584 
Q 2591 3584 2966 3190 
Q 3341 2797 3341 1997 
z
" transform="scale(0.015625)"/>
       <path id="DejaVuSans-69" d="M 603 3500 
L 1178 3500 
L 1178 0 
L 603 0 
L 603 3500 
z
M 603 4863 
L 1178 4863 
L 1178 4134 
L 603 4134 
L 603 4863 
z
" transform="scale(0.015625)"/>
       <path id="DejaVuSans-6e" d="M 3513 2113 
L 3513 0 
L 2938 0 
L 2938 2094 
Q 2938 2591 2744 2837 
Q 2550 3084 2163 3084 
Q 1697 3084 1428 2787 
Q 1159 2491 1159 1978 
L 1159 0 
L 581 0 
L 581 3500 
L 1159 3500 
L 1159 2956 
Q 1366 3272 1645 3428 
Q 1925 3584 2291 3584 
Q 2894 3584 3203 3211 
Q 3513 2838 3513 2113 
z
" transform="scale(0.015625)"/>
       <path id="DejaVuSans-67" d="M 2906 1791 
Q 2906 2416 2648 2759 
Q 2391 3103 1925 3103 
Q 1463 3103 1205 2759 
Q 947 2416 947 1791 
Q 947 1169 1205 825 
Q 1463 481 1925 481 
Q 2391 481 2648 825 
Q 2906 1169 2906 1791 
z
M 3481 434 
Q 3481 -459 3084 -895 
Q 2688 -1331 1869 -1331 
Q 1566 -1331 1297 -1286 
Q 1028 -1241 775 -1147 
L 775 -588 
Q 1028 -725 1275 -790 
Q 1522 -856 1778 -856 
Q 2344 -856 2625 -561 
Q 2906 -266 2906 331 
L 2906 616 
Q 2728 306 2450 153 
Q 2172 0 1784 0 
Q 1141 0 747 490 
Q 353 981 353 1791 
Q 353 2603 747 3093 
Q 1141 3584 1784 3584 
Q 2172 3584 2450 3431 
Q 2728 3278 2906 2969 
L 2906 3500 
L 3481 3500 
L 3481 434 
z
" transform="scale(0.015625)"/>
       <path id="DejaVuSans-20" transform="scale(0.015625)"/>
       <path id="DejaVuSans-73" d="M 2834 3397 
L 2834 2853 
Q 2591 2978 2328 3040 
Q 2066 3103 1784 3103 
Q 1356 3103 1142 2972 
Q 928 2841 928 2578 
Q 928 2378 1081 2264 
Q 1234 2150 1697 2047 
L 1894 2003 
Q 2506 1872 2764 1633 
Q 3022 1394 3022 966 
Q 3022 478 2636 193 
Q 2250 -91 1575 -91 
Q 1294 -91 989 -36 
Q 684 19 347 128 
L 347 722 
Q 666 556 975 473 
Q 1284 391 1588 391 
Q 1994 391 2212 530 
Q 2431 669 2431 922 
Q 2431 1156 2273 1281 
Q 2116 1406 1581 1522 
L 1381 1569 
Q 847 1681 609 1914 
Q 372 2147 372 2553 
Q 372 3047 722 3315 
Q 1072 3584 1716 3584 
Q 2034 3584 2315 3537 
Q 2597 3491 2834 3397 
z
" transform="scale(0.015625)"/>
       <path id="DejaVuSans-74" d="M 1172 4494 
L 1172 3500 
L 2356 3500 
L 2356 3053 
L 1172 3053 
L 1172 1153 
Q 1172 725 1289 603 
Q 1406 481 1766 481 
L 2356 481 
L 2356 0 
L 1766 0 
Q 1100 0 847 248 
Q 594 497 594 1153 
L 594 3053 
L 172 3053 
L 172 3500 
L 594 3500 
L 594 4494 
L 1172 4494 
z
" transform="scale(0.015625)"/>
       <path id="DejaVuSans-65" d="M 3597 1894 
L 3597 1613 
L 953 1613 
Q 991 1019 1311 708 
Q 1631 397 2203 397 
Q 2534 397 2845 478 
Q 3156 559 3463 722 
L 3463 178 
Q 3153 47 2828 -22 
Q 2503 -91 2169 -91 
Q 1331 -91 842 396 
Q 353 884 353 1716 
Q 353 2575 817 3079 
Q 1281 3584 2069 3584 
Q 2775 3584 3186 3129 
Q 3597 2675 3597 1894 
z
M 3022 2063 
Q 3016 2534 2758 2815 
Q 2500 3097 2075 3097 
Q 1594 3097 1305 2825 
Q 1016 2553 972 2059 
L 3022 2063 
z
" transform="scale(0.015625)"/>
       <path id="DejaVuSans-70" d="M 1159 525 
L 1159 -1331 
L 581 -1331 
L 581 3500 
L 1159 3500 
L 1159 2969 
Q 1341 3281 1617 3432 
Q 1894 3584 2278 3584 
Q 2916 3584 3314 3078 
Q 3713 2572 3713 1747 
Q 3713 922 3314 415 
Q 2916 -91 2278 -91 
Q 1894 -91 1617 61 
Q 1341 213 1159 525 
z
M 3116 1747 
Q 3116 2381 2855 2742 
Q 2594 3103 2138 3103 
Q 1681 3103 1420 2742 
Q 1159 2381 1159 1747 
Q 1159 1113 1420 752 
Q 1681 391 2138 391 
Q 2594 391 2855 752 
Q 3116 1113 3116 1747 
z
" transform="scale(0.015625)"/>
      </defs>
      <use xlink:href="#DejaVuSans-54"/>
      <use xlink:href="#DejaVuSans-72" transform="translate(46.333984 0)"/>
      <use xlink:href="#DejaVuSans-61" transform="translate(87.447266 0)"/>
      <use xlink:href="#DejaVuSans-69" transform="translate(148.726562 0)"/>
      <use xlink:href="#DejaVuSans-6e" transform="translate(176.509766 0)"/>
      <use xlink:href="#DejaVuSans-69" transform="translate(239.888672 0)"/>
      <use xlink:href="#DejaVuSans-6e" transform="translate(267.671875 0)"/>
      <use xlink:href="#DejaVuSans-67" transform="translate(331.050781 0)"/>
      <use xlink:href="#DejaVuSans-20" transform="translate(394.527344 0)"/>
      <use xlink:href="#DejaVuSans-73" transform="translate(426.314453 0)"/>
      <use xlink:href="#DejaVuSans-74" transform="translate(478.414062 0)"/>
      <use xlink:href="#DejaVuSans-65" transform="translate(517.623047 0)"/>
      <use xlink:href="#DejaVuSans-70" transform="translate(579.146484 0)"/>
     </g>
    </g>
   </g>
   <g id="matplotlib.axis_2">
    <g id="ytick_1">
     <g id="line2d_11">
      <path d="M 63.02 344.431982 
L 671.56 344.431982 
" clip-path="url(#p7d72e86408)" style="fill: none; stroke-dasharray: 2.96,1.28; stroke-dashoffset: 0; stroke: #b0b0b0; stroke-opacity: 0.2; stroke-width: 0.8"/>
     </g>
     <g id="line2d_12">
      <defs>
       <path id="m330276e328" d="M 0 0 
L -3.5 0 
" style="stroke: #000000; stroke-width: 0.8"/>
      </defs>
      <g>
       <use xlink:href="#m330276e328" x="63.02" y="344.431982" style="stroke: #000000; stroke-width: 0.8"/>
      </g>
     </g>
     <g id="text_7">
      <!-- −0.04 -->
      <g style="fill: #26547c" transform="translate(25.374687 348.231201) scale(0.1 -0.1)">
       <defs>
        <path id="DejaVuSans-2212" d="M 678 2272 
L 4684 2272 
L 4684 1741 
L 678 1741 
L 678 2272 
z
" transform="scale(0.015625)"/>
        <path id="DejaVuSans-2e" d="M 684 794 
L 1344 794 
L 1344 0 
L 684 0 
L 684 794 
z
" transform="scale(0.015625)"/>
       </defs>
       <use xlink:href="#DejaVuSans-2212"/>
       <use xlink:href="#DejaVuSans-30" transform="translate(83.789062 0)"/>
       <use xlink:href="#DejaVuSans-2e" transform="translate(147.412109 0)"/>
       <use xlink:href="#DejaVuSans-30" transform="translate(179.199219 0)"/>
       <use xlink:href="#DejaVuSans-34" transform="translate(242.822266 0)"/>
      </g>
     </g>
    </g>
    <g id="ytick_2">
     <g id="line2d_13">
      <path d="M 63.02 285.473321 
L 671.56 285.473321 
" clip-path="url(#p7d72e86408)" style="fill: none; stroke-dasharray: 2.96,1.28; stroke-dashoffset: 0; stroke: #b0b0b0; stroke-opacity: 0.2; stroke-width: 0.8"/>
     </g>
     <g id="line2d_14">
      <g>
       <use xlink:href="#m330276e328" x="63.02" y="285.473321" style="stroke: #000000; stroke-width: 0.8"/>
      </g>
     </g>
     <g id="text_8">
      <!-- −0.02 -->
      <g style="fill: #26547c" transform="translate(25.374687 289.27254) scale(0.1 -0.1)">
       <use xlink:href="#DejaVuSans-2212"/>
       <use xlink:href="#DejaVuSans-30" transform="translate(83.789062 0)"/>
       <use xlink:href="#DejaVuSans-2e" transform="translate(147.412109 0)"/>
       <use xlink:href="#DejaVuSans-30" transform="translate(179.199219 0)"/>
       <use xlink:href="#DejaVuSans-32" transform="translate(242.822266 0)"/>
      </g>
     </g>
    </g>
    <g id="ytick_3">
     <g id="line2d_15">
      <path d="M 63.02 226.51466 
L 671.56 226.51466 
" clip-path="url(#p7d72e86408)" style="fill: none; stroke-dasharray: 2.96,1.28; stroke-dashoffset: 0; stroke: #b0b0b0; stroke-opacity: 0.2; stroke-width: 0.8"/>
     </g>
     <g id="line2d_16">
      <g>
       <use xlink:href="#m330276e328" x="63.02" y="226.51466" style="stroke: #000000; stroke-width: 0.8"/>
      </g>
     </g>
     <g id="text_9">
      <!-- 0.00 -->
      <g style="fill: #26547c" transform="translate(33.754375 230.313879) scale(0.1 -0.1)">
       <use xlink:href="#DejaVuSans-30"/>
       <use xlink:href="#DejaVuSans-2e" transform="translate(63.623047 0)"/>
       <use xlink:href="#DejaVuSans-30" transform="translate(95.410156 0)"/>
       <use xlink:href="#DejaVuSans-30" transform="translate(159.033203 0)"/>
      </g>
     </g>
    </g>
    <g id="ytick_4">
     <g id="line2d_17">
      <path d="M 63.02 167.555999 
L 671.56 167.555999 
" clip-path="url(#p7d72e86408)" style="fill: none; stroke-dasharray: 2.96,1.28; stroke-dashoffset: 0; stroke: #b0b0b0; stroke-opacity: 0.2; stroke-width: 0.8"/>
     </g>
     <g id="line2d_18">
      <g>
       <use xlink:href="#m330276e328" x="63.02" y="167.555999" style="stroke: #000000; stroke-width: 0.8"/>
      </g>
     </g>
     <g id="text_10">
      <!-- 0.02 -->
      <g style="fill: #26547c" transform="translate(33.754375 171.355218) scale(0.1 -0.1)">
       <use xlink:href="#DejaVuSans-30"/>
       <use xlink:href="#DejaVuSans-2e" transform="translate(63.623047 0)"/>
       <use xlink:href="#DejaVuSans-30" transform="translate(95.410156 0)"/>
       <use xlink:href="#DejaVuSans-32" transform="translate(159.033203 0)"/>
      </g>
     </g>
    </g>
    <g id="ytick_5">
     <g id="line2d_19">
      <path d="M 63.02 108.597338 
L 671.56 108.597338 
" clip-path="url(#p7d72e86408)" style="fill: none; stroke-dasharray: 2.96,1.28; stroke-dashoffset: 0; stroke: #b0b0b0; stroke-opacity: 0.2; stroke-width: 0.8"/>
     </g>
     <g id="line2d_20">
      <g>
       <use xlink:href="#m330276e328" x="63.02" y="108.597338" style="stroke: #000000; stroke-width: 0.8"/>
      </g>
     </g>
     <g id="text_11">
      <!-- 0.04 -->
      <g style="fill: #26547c" transform="translate(33.754375 112.396557) scale(0.1 -0.1)">
       <use xlink:href="#DejaVuSans-30"/>
       <use xlink:href="#DejaVuSans-2e" transform="translate(63.623047 0)"/>
       <use xlink:href="#DejaVuSans-30" transform="translate(95.410156 0)"/>
       <use xlink:href="#DejaVuSans-34" transform="translate(159.033203 0)"/>
      </g>
     </g>
    </g>
    <g id="ytick_6">
     <g id="line2d_21">
      <path d="M 63.02 49.638678 
L 671.56 49.638678 
" clip-path="url(#p7d72e86408)" style="fill: none; stroke-dasharray: 2.96,1.28; stroke-dashoffset: 0; stroke: #b0b0b0; stroke-opacity: 0.2; stroke-width: 0.8"/>
     </g>
     <g id="line2d_22">
      <g>
       <use xlink:href="#m330276e328" x="63.02" y="49.638678" style="stroke: #000000; stroke-width: 0.8"/>
      </g>
     </g>
     <g id="text_12">
      <!-- 0.06 -->
      <g style="fill: #26547c" transform="translate(33.754375 53.437896) scale(0.1 -0.1)">
       <defs>
        <path id="DejaVuSans-36" d="M 2113 2584 
Q 1688 2584 1439 2293 
Q 1191 2003 1191 1497 
Q 1191 994 1439 701 
Q 1688 409 2113 409 
Q 2538 409 2786 701 
Q 3034 994 3034 1497 
Q 3034 2003 2786 2293 
Q 2538 2584 2113 2584 
z
M 3366 4563 
L 3366 3988 
Q 3128 4100 2886 4159 
Q 2644 4219 2406 4219 
Q 1781 4219 1451 3797 
Q 1122 3375 1075 2522 
Q 1259 2794 1537 2939 
Q 1816 3084 2150 3084 
Q 2853 3084 3261 2657 
Q 3669 2231 3669 1497 
Q 3669 778 3244 343 
Q 2819 -91 2113 -91 
Q 1303 -91 875 529 
Q 447 1150 447 2328 
Q 447 3434 972 4092 
Q 1497 4750 2381 4750 
Q 2619 4750 2861 4703 
Q 3103 4656 3366 4563 
z
" transform="scale(0.015625)"/>
       </defs>
       <use xlink:href="#DejaVuSans-30"/>
       <use xlink:href="#DejaVuSans-2e" transform="translate(63.623047 0)"/>
       <use xlink:href="#DejaVuSans-30" transform="translate(95.410156 0)"/>
       <use xlink:href="#DejaVuSans-36" transform="translate(159.033203 0)"/>
      </g>
     </g>
    </g>
    <g id="text_13">
     <!-- Training loss -->
     <g style="fill: #26547c" transform="translate(19.087031 228.009922) rotate(-90) scale(0.11 -0.11)">
      <defs>
       <path id="DejaVuSans-6c" d="M 603 4863 
L 1178 4863 
L 1178 0 
L 603 0 
L 603 4863 
z
" transform="scale(0.015625)"/>
       <path id="DejaVuSans-6f" d="M 1959 3097 
Q 1497 3097 1228 2736 
Q 959 2375 959 1747 
Q 959 1119 1226 758 
Q 1494 397 1959 397 
Q 2419 397 2687 759 
Q 2956 1122 2956 1747 
Q 2956 2369 2687 2733 
Q 2419 3097 1959 3097 
z
M 1959 3584 
Q 2709 3584 3137 3096 
Q 3566 2609 3566 1747 
Q 3566 888 3137 398 
Q 2709 -91 1959 -91 
Q 1206 -91 779 398 
Q 353 888 353 1747 
Q 353 2609 779 3096 
Q 1206 3584 1959 3584 
z
" transform="scale(0.015625)"/>
      </defs>
      <use xlink:href="#DejaVuSans-54"/>
      <use xlink:href="#DejaVuSans-72" transform="translate(46.333984 0)"/>
      <use xlink:href="#DejaVuSans-61" transform="translate(87.447266 0)"/>
      <use xlink:href="#DejaVuSans-69" transform="translate(148.726562 0)"/>
      <use xlink:href="#DejaVuSans-6e" transform="translate(176.509766 0)"/>
      <use xlink:href="#DejaVuSans-69" transform="translate(239.888672 0)"/>
      <use xlink:href="#DejaVuSans-6e" transform="translate(267.671875 0)"/>
      <use xlink:href="#DejaVuSans-67" transform="translate(331.050781 0)"/>
      <use xlink:href="#DejaVuSans-20" transform="translate(394.527344 0)"/>
      <use xlink:href="#DejaVuSans-6c" transform="translate(426.314453 0)"/>
      <use xlink:href="#DejaVuSans-6f" transform="translate(454.097656 0)"/>
      <use xlink:href="#DejaVuSans-73" transform="translate(515.279297 0)"/>
      <use xlink:href="#DejaVuSans-73" transform="translate(567.378906 0)"/>
     </g>
    </g>
   </g>
   <g id="line2d_23">
    <path d="M 90.680909 244.791845 
L 96.896844 214.133341 
L 103.112778 201.457229 
L 109.328713 235.063666 
L 115.544648 227.39904 
L 121.760582 299.033813 
L 127.976517 201.752023 
L 134.192451 228.578213 
L 140.408386 199.098883 
L 146.624321 169.324759 
L 152.840255 199.688469 
L 159.05619 169.029966 
L 165.272125 190.549877 
L 171.488059 168.735172 
L 177.703994 223.86152 
L 183.919928 188.191531 
L 190.135863 150.752781 
L 196.351798 173.451865 
L 202.567732 117.441138 
L 208.783667 49.049091 
L 214.999602 186.127977 
L 221.215536 279.282662 
L 227.431471 183.180044 
L 233.647406 85.013874 
L 239.86334 253.046058 
L 246.079275 192.023844 
L 252.295209 177.578972 
L 258.511144 212.364582 
L 264.727079 213.838548 
L 270.943013 275.155555 
L 277.158948 270.144069 
L 283.374883 174.041452 
L 289.590817 224.156314 
L 295.806752 158.7122 
L 302.022686 268.964896 
L 308.238621 146.920468 
L 314.454556 216.491688 
L 320.67049 189.07591 
L 326.886425 255.109611 
L 333.10236 187.012357 
L 339.318294 187.012357 
L 345.534229 187.601944 
L 351.750163 205.879129 
L 357.966098 338.830909 
L 364.182033 188.486324 
L 370.397967 174.041452 
L 376.613902 113.314031 
L 382.829837 176.989385 
L 389.045771 158.7122 
L 395.261706 177.578972 
L 401.47764 197.624916 
L 407.693575 332.64025 
L 413.90951 306.108852 
L 420.125444 204.110369 
L 426.341379 191.139464 
L 432.557314 267.785723 
L 438.773248 171.977899 
L 444.989183 153.111127 
L 451.205117 256.288784 
L 457.421052 301.686953 
L 463.636987 240.664739 
L 469.852921 147.510055 
L 476.068856 214.133341 
L 482.284791 222.387554 
L 488.500725 244.497052 
L 494.71666 288.126461 
L 500.932594 191.139464 
L 507.148529 204.110369 
L 513.364464 222.682347 
L 519.580398 258.64713 
L 525.796333 269.554483 
L 532.012268 204.405162 
L 538.228202 175.515418 
L 544.444137 199.688469 
L 550.660072 149.573608 
L 556.876006 233.000113 
L 563.091941 207.058302 
L 569.307875 190.84467 
L 575.52381 260.121097 
L 581.739745 103.585852 
L 587.955679 300.50778 
L 594.171614 186.127977 
L 600.387549 303.160919 
L 606.603483 250.392918 
L 612.819418 285.473321 
L 619.035352 268.080516 
L 625.251287 222.092761 
L 631.467222 260.41589 
L 637.683156 241.254325 
L 643.899091 156.353854 
" clip-path="url(#p7d72e86408)" style="fill: none; stroke: #26547c; stroke-opacity: 0.45; stroke-width: 1.2; stroke-linecap: square"/>
   </g>
   <g id="patch_3">
    <path d="M 63.02 353.32 
L 63.02 34.56 
" style="fill: none; stroke: #000000; stroke-width: 0.8; stroke-linejoin: miter; stroke-linecap: square"/>
   </g>
   <g id="patch_4">
    <path d="M 671.56 353.32 
L 671.56 34.56 
" style="fill: none; stroke: #000000; stroke-width: 0.8; stroke-linejoin: miter; stroke-linecap: square"/>
   </g>
   <g id="patch_5">
    <path d="M 63.02 353.32 
L 671.56 353.32 
" style="fill: none; stroke: #000000; stroke-width: 0.8; stroke-linejoin: miter; stroke-linecap: square"/>
   </g>
   <g id="patch_6">
    <path d="M 63.02 34.56 
L 671.56 34.56 
" style="fill: none; stroke: #000000; stroke-width: 0.8; stroke-linejoin: miter; stroke-linecap: square"/>
   </g>
  </g>
  <g id="axes_2">
   <g id="matplotlib.axis_3">
    <g id="ytick_7">
     <g id="line2d_24">
      <defs>
       <path id="m15ed3fe585" d="M 0 0 
L 3.5 0 
" style="stroke: #000000; stroke-width: 0.8"/>
      </defs>
      <g>
       <use xlink:href="#m15ed3fe585" x="671.56" y="327.664474" style="stroke: #000000; stroke-width: 0.8"/>
      </g>
     </g>
     <g id="text_14">
      <!-- 0.0 -->
      <g style="fill: #06a77d" transform="translate(678.56 331.463693) scale(0.1 -0.1)">
       <use xlink:href="#DejaVuSans-30"/>
       <use xlink:href="#DejaVuSans-2e" transform="translate(63.623047 0)"/>
       <use xlink:href="#DejaVuSans-30" transform="translate(95.410156 0)"/>
      </g>
     </g>
    </g>
    <g id="ytick_8">
     <g id="line2d_25">
      <g>
       <use xlink:href="#m15ed3fe585" x="671.56" y="263.489563" style="stroke: #000000; stroke-width: 0.8"/>
      </g>
     </g>
     <g id="text_15">
      <!-- 0.1 -->
      <g style="fill: #06a77d" transform="translate(678.56 267.288782) scale(0.1 -0.1)">
       <use xlink:href="#DejaVuSans-30"/>
       <use xlink:href="#DejaVuSans-2e" transform="translate(63.623047 0)"/>
       <use xlink:href="#DejaVuSans-31" transform="translate(95.410156 0)"/>
      </g>
     </g>
    </g>
    <g id="ytick_9">
     <g id="line2d_26">
      <g>
       <use xlink:href="#m15ed3fe585" x="671.56" y="199.314652" style="stroke: #000000; stroke-width: 0.8"/>
      </g>
     </g>
     <g id="text_16">
      <!-- 0.2 -->
      <g style="fill: #06a77d" transform="translate(678.56 203.113871) scale(0.1 -0.1)">
       <use xlink:href="#DejaVuSans-30"/>
       <use xlink:href="#DejaVuSans-2e" transform="translate(63.623047 0)"/>
       <use xlink:href="#DejaVuSans-32" transform="translate(95.410156 0)"/>
      </g>
     </g>
    </g>
    <g id="ytick_10">
     <g id="line2d_27">
      <g>
       <use xlink:href="#m15ed3fe585" x="671.56" y="135.139741" style="stroke: #000000; stroke-width: 0.8"/>
      </g>
     </g>
     <g id="text_17">
      <!-- 0.3 -->
      <g style="fill: #06a77d" transform="translate(678.56 138.93896) scale(0.1 -0.1)">
       <use xlink:href="#DejaVuSans-30"/>
       <use xlink:href="#DejaVuSans-2e" transform="translate(63.623047 0)"/>
       <use xlink:href="#DejaVuSans-33" transform="translate(95.410156 0)"/>
      </g>
     </g>
    </g>
    <g id="ytick_11">
     <g id="line2d_28">
      <g>
       <use xlink:href="#m15ed3fe585" x="671.56" y="70.96483" style="stroke: #000000; stroke-width: 0.8"/>
      </g>
     </g>
     <g id="text_18">
      <!-- 0.4 -->
      <g style="fill: #06a77d" transform="translate(678.56 74.764048) scale(0.1 -0.1)">
       <use xlink:href="#DejaVuSans-30"/>
       <use xlink:href="#DejaVuSans-2e" transform="translate(63.623047 0)"/>
       <use xlink:href="#DejaVuSans-34" transform="translate(95.410156 0)"/>
      </g>
     </g>
    </g>
    <g id="text_19">
     <!-- Mean reward — live env HTTP scalar (unbounded) -->
     <g style="fill: #06a77d" transform="translate(706.821406 331.48125) rotate(-90) scale(0.11 -0.11)">
      <defs>
       <path id="DejaVuSans-4d" d="M 628 4666 
L 1569 4666 
L 2759 1491 
L 3956 4666 
L 4897 4666 
L 4897 0 
L 4281 0 
L 4281 4097 
L 3078 897 
L 2444 897 
L 1241 4097 
L 1241 0 
L 628 0 
L 628 4666 
z
" transform="scale(0.015625)"/>
       <path id="DejaVuSans-77" d="M 269 3500 
L 844 3500 
L 1563 769 
L 2278 3500 
L 2956 3500 
L 3675 769 
L 4391 3500 
L 4966 3500 
L 4050 0 
L 3372 0 
L 2619 2869 
L 1863 0 
L 1184 0 
L 269 3500 
z
" transform="scale(0.015625)"/>
       <path id="DejaVuSans-64" d="M 2906 2969 
L 2906 4863 
L 3481 4863 
L 3481 0 
L 2906 0 
L 2906 525 
Q 2725 213 2448 61 
Q 2172 -91 1784 -91 
Q 1150 -91 751 415 
Q 353 922 353 1747 
Q 353 2572 751 3078 
Q 1150 3584 1784 3584 
Q 2172 3584 2448 3432 
Q 2725 3281 2906 2969 
z
M 947 1747 
Q 947 1113 1208 752 
Q 1469 391 1925 391 
Q 2381 391 2643 752 
Q 2906 1113 2906 1747 
Q 2906 2381 2643 2742 
Q 2381 3103 1925 3103 
Q 1469 3103 1208 2742 
Q 947 2381 947 1747 
z
" transform="scale(0.015625)"/>
       <path id="DejaVuSans-2014" d="M 313 1978 
L 6088 1978 
L 6088 1528 
L 313 1528 
L 313 1978 
z
" transform="scale(0.015625)"/>
       <path id="DejaVuSans-76" d="M 191 3500 
L 800 3500 
L 1894 563 
L 2988 3500 
L 3597 3500 
L 2284 0 
L 1503 0 
L 191 3500 
z
" transform="scale(0.015625)"/>
       <path id="DejaVuSans-48" d="M 628 4666 
L 1259 4666 
L 1259 2753 
L 3553 2753 
L 3553 4666 
L 4184 4666 
L 4184 0 
L 3553 0 
L 3553 2222 
L 1259 2222 
L 1259 0 
L 628 0 
L 628 4666 
z
" transform="scale(0.015625)"/>
       <path id="DejaVuSans-50" d="M 1259 4147 
L 1259 2394 
L 2053 2394 
Q 2494 2394 2734 2622 
Q 2975 2850 2975 3272 
Q 2975 3691 2734 3919 
Q 2494 4147 2053 4147 
L 1259 4147 
z
M 628 4666 
L 2053 4666 
Q 2838 4666 3239 4311 
Q 3641 3956 3641 3272 
Q 3641 2581 3239 2228 
Q 2838 1875 2053 1875 
L 1259 1875 
L 1259 0 
L 628 0 
L 628 4666 
z
" transform="scale(0.015625)"/>
       <path id="DejaVuSans-63" d="M 3122 3366 
L 3122 2828 
Q 2878 2963 2633 3030 
Q 2388 3097 2138 3097 
Q 1578 3097 1268 2742 
Q 959 2388 959 1747 
Q 959 1106 1268 751 
Q 1578 397 2138 397 
Q 2388 397 2633 464 
Q 2878 531 3122 666 
L 3122 134 
Q 2881 22 2623 -34 
Q 2366 -91 2075 -91 
Q 1284 -91 818 406 
Q 353 903 353 1747 
Q 353 2603 823 3093 
Q 1294 3584 2113 3584 
Q 2378 3584 2631 3529 
Q 2884 3475 3122 3366 
z
" transform="scale(0.015625)"/>
       <path id="DejaVuSans-28" d="M 1984 4856 
Q 1566 4138 1362 3434 
Q 1159 2731 1159 2009 
Q 1159 1288 1364 580 
Q 1569 -128 1984 -844 
L 1484 -844 
Q 1016 -109 783 600 
Q 550 1309 550 2009 
Q 550 2706 781 3412 
Q 1013 4119 1484 4856 
L 1984 4856 
z
" transform="scale(0.015625)"/>
       <path id="DejaVuSans-75" d="M 544 1381 
L 544 3500 
L 1119 3500 
L 1119 1403 
Q 1119 906 1312 657 
Q 1506 409 1894 409 
Q 2359 409 2629 706 
Q 2900 1003 2900 1516 
L 2900 3500 
L 3475 3500 
L 3475 0 
L 2900 0 
L 2900 538 
Q 2691 219 2414 64 
Q 2138 -91 1772 -91 
Q 1169 -91 856 284 
Q 544 659 544 1381 
z
M 1991 3584 
L 1991 3584 
z
" transform="scale(0.015625)"/>
       <path id="DejaVuSans-62" d="M 3116 1747 
Q 3116 2381 2855 2742 
Q 2594 3103 2138 3103 
Q 1681 3103 1420 2742 
Q 1159 2381 1159 1747 
Q 1159 1113 1420 752 
Q 1681 391 2138 391 
Q 2594 391 2855 752 
Q 3116 1113 3116 1747 
z
M 1159 2969 
Q 1341 3281 1617 3432 
Q 1894 3584 2278 3584 
Q 2916 3584 3314 3078 
Q 3713 2572 3713 1747 
Q 3713 922 3314 415 
Q 2916 -91 2278 -91 
Q 1894 -91 1617 61 
Q 1341 213 1159 525 
L 1159 0 
L 581 0 
L 581 4863 
L 1159 4863 
L 1159 2969 
z
" transform="scale(0.015625)"/>
       <path id="DejaVuSans-29" d="M 513 4856 
L 1013 4856 
Q 1481 4119 1714 3412 
Q 1947 2706 1947 2009 
Q 1947 1309 1714 600 
Q 1481 -109 1013 -844 
L 513 -844 
Q 928 -128 1133 580 
Q 1338 1288 1338 2009 
Q 1338 2731 1133 3434 
Q 928 4138 513 4856 
z
" transform="scale(0.015625)"/>
      </defs>
      <use xlink:href="#DejaVuSans-4d"/>
      <use xlink:href="#DejaVuSans-65" transform="translate(86.279297 0)"/>
      <use xlink:href="#DejaVuSans-61" transform="translate(147.802734 0)"/>
      <use xlink:href="#DejaVuSans-6e" transform="translate(209.082031 0)"/>
      <use xlink:href="#DejaVuSans-20" transform="translate(272.460938 0)"/>
      <use xlink:href="#DejaVuSans-72" transform="translate(304.248047 0)"/>
      <use xlink:href="#DejaVuSans-65" transform="translate(343.111328 0)"/>
      <use xlink:href="#DejaVuSans-77" transform="translate(404.634766 0)"/>
      <use xlink:href="#DejaVuSans-61" transform="translate(486.421875 0)"/>
      <use xlink:href="#DejaVuSans-72" transform="translate(547.701172 0)"/>
      <use xlink:href="#DejaVuSans-64" transform="translate(587.064453 0)"/>
      <use xlink:href="#DejaVuSans-20" transform="translate(650.541016 0)"/>
      <use xlink:href="#DejaVuSans-2014" transform="translate(682.328125 0)"/>
      <use xlink:href="#DejaVuSans-20" transform="translate(782.328125 0)"/>
      <use xlink:href="#DejaVuSans-6c" transform="translate(814.115234 0)"/>
      <use xlink:href="#DejaVuSans-69" transform="translate(841.898438 0)"/>
      <use xlink:href="#DejaVuSans-76" transform="translate(869.681641 0)"/>
      <use xlink:href="#DejaVuSans-65" transform="translate(928.861328 0)"/>
      <use xlink:href="#DejaVuSans-20" transform="translate(990.384766 0)"/>
      <use xlink:href="#DejaVuSans-65" transform="translate(1022.171875 0)"/>
      <use xlink:href="#DejaVuSans-6e" transform="translate(1083.695312 0)"/>
      <use xlink:href="#DejaVuSans-76" transform="translate(1147.074219 0)"/>
      <use xlink:href="#DejaVuSans-20" transform="translate(1206.253906 0)"/>
      <use xlink:href="#DejaVuSans-48" transform="translate(1238.041016 0)"/>
      <use xlink:href="#DejaVuSans-54" transform="translate(1313.236328 0)"/>
      <use xlink:href="#DejaVuSans-54" transform="translate(1372.570312 0)"/>
      <use xlink:href="#DejaVuSans-50" transform="translate(1433.654297 0)"/>
      <use xlink:href="#DejaVuSans-20" transform="translate(1493.957031 0)"/>
      <use xlink:href="#DejaVuSans-73" transform="translate(1525.744141 0)"/>
      <use xlink:href="#DejaVuSans-63" transform="translate(1577.84375 0)"/>
      <use xlink:href="#DejaVuSans-61" transform="translate(1632.824219 0)"/>
      <use xlink:href="#DejaVuSans-6c" transform="translate(1694.103516 0)"/>
      <use xlink:href="#DejaVuSans-61" transform="translate(1721.886719 0)"/>
      <use xlink:href="#DejaVuSans-72" transform="translate(1783.166016 0)"/>
      <use xlink:href="#DejaVuSans-20" transform="translate(1824.279297 0)"/>
      <use xlink:href="#DejaVuSans-28" transform="translate(1856.066406 0)"/>
      <use xlink:href="#DejaVuSans-75" transform="translate(1895.080078 0)"/>
      <use xlink:href="#DejaVuSans-6e" transform="translate(1958.458984 0)"/>
      <use xlink:href="#DejaVuSans-62" transform="translate(2021.837891 0)"/>
      <use xlink:href="#DejaVuSans-6f" transform="translate(2085.314453 0)"/>
      <use xlink:href="#DejaVuSans-75" transform="translate(2146.496094 0)"/>
      <use xlink:href="#DejaVuSans-6e" transform="translate(2209.875 0)"/>
      <use xlink:href="#DejaVuSans-64" transform="translate(2273.253906 0)"/>
      <use xlink:href="#DejaVuSans-65" transform="translate(2336.730469 0)"/>
      <use xlink:href="#DejaVuSans-64" transform="translate(2398.253906 0)"/>
      <use xlink:href="#DejaVuSans-29" transform="translate(2461.730469 0)"/>
     </g>
    </g>
   </g>
   <g id="line2d_29">
    <path d="M 90.680909 298.561152 
L 96.896844 338.830909 
L 103.112778 300.229699 
L 109.328713 309.05375 
L 115.544648 304.112282 
L 121.760582 313.35347 
L 127.976517 252.162693 
L 134.192451 279.661641 
L 140.408386 328.081611 
L 146.624321 284.185971 
L 152.840255 267.372147 
L 159.05619 229.50895 
L 165.272125 256.109449 
L 171.488059 245.00719 
L 177.703994 192.447937 
L 183.919928 201.336162 
L 190.135863 198.737079 
L 196.351798 227.070301 
L 202.567732 188.950405 
L 208.783667 167.098844 
L 214.999602 194.116483 
L 221.215536 148.58438 
L 227.431471 187.153504 
L 233.647406 120.122814 
L 239.86334 141.910189 
L 246.079275 137.770914 
L 252.295209 114.154547 
L 258.511144 85.789235 
L 264.727079 129.235645 
L 270.943013 107.640792 
L 277.158948 58.386545 
L 283.374883 93.008909 
L 289.590817 107.480351 
L 295.806752 98.463775 
L 302.022686 101.287473 
L 308.238621 78.826256 
L 314.454556 114.443325 
L 320.67049 117.491634 
L 326.886425 87.168987 
L 333.10236 103.565686 
L 339.318294 97.693675 
L 345.534229 84.826604 
L 351.750163 79.371742 
L 357.966098 105.170057 
L 364.182033 76.162992 
L 370.397967 76.6764 
L 376.613902 116.464839 
L 382.829837 99.426398 
L 389.045771 68.01278 
L 395.261706 86.976469 
L 401.47764 112.871039 
L 407.693575 108.250451 
L 413.90951 83.735633 
L 420.125444 74.109394 
L 426.341379 63.77724 
L 432.557314 116.496926 
L 438.773248 55.97998 
L 444.989183 101.127036 
L 451.205117 55.562847 
L 457.421052 57.648525 
L 463.636987 56.461295 
L 469.852921 63.937674 
L 476.068856 49.049091 
L 482.284791 58.129844 
L 488.500725 64.547337 
L 494.71666 69.296281 
L 500.932594 76.29134 
L 507.148529 69.200017 
L 513.364464 76.548044 
L 519.580398 108.731759 
L 525.796333 75.649591 
L 532.012268 70.483511 
L 538.228202 76.002558 
L 544.444137 94.324491 
L 550.660072 76.034644 
L 556.876006 76.162996 
L 563.091941 80.302276 
L 569.307875 68.814965 
L 575.52381 84.762434 
L 581.739745 69.200017 
L 587.955679 53.252549 
L 594.171614 94.934154 
L 600.387549 82.00291 
L 606.603483 90.698615 
L 612.819418 80.687328 
L 619.035352 69.200014 
L 625.251287 62.397473 
L 631.467222 97.886208 
L 637.683156 65.606219 
L 643.899091 114.764203 
" clip-path="url(#p7d72e86408)" style="fill: none; stroke: #06a77d; stroke-opacity: 0.3; stroke-linecap: square"/>
   </g>
   <g id="line2d_30">
    <path d="M 90.680909 298.561152 
L 96.896844 318.696031 
L 103.112778 312.540587 
L 109.328713 311.668878 
L 115.544648 310.157558 
L 121.760582 310.69021 
L 127.976517 302.329136 
L 134.192451 299.629206 
L 140.408386 298.093592 
L 146.624321 295.801631 
L 152.840255 289.847116 
L 159.05619 279.189498 
L 165.272125 271.01178 
L 171.488059 269.989566 
L 177.703994 257.530465 
L 183.919928 239.423972 
L 190.135863 227.216988 
L 196.351798 221.459581 
L 202.567732 215.665503 
L 208.783667 202.949703 
L 214.999602 195.679602 
L 221.215536 189.413379 
L 227.431471 187.387285 
L 233.647406 176.156676 
L 239.86334 163.990946 
L 246.079275 156.67959 
L 252.295209 149.116119 
L 258.511144 133.640797 
L 264.727079 130.876692 
L 270.943013 119.517734 
L 277.158948 110.698266 
L 283.374883 103.712369 
L 289.590817 99.385146 
L 295.806752 97.143607 
L 302.022686 99.357641 
L 308.238621 92.1563 
L 314.454556 93.128091 
L 320.67049 101.571675 
L 326.886425 100.7374 
L 333.10236 100.178162 
L 339.318294 100.068148 
L 345.534229 97.716595 
L 351.750163 97.794522 
L 357.966098 96.469769 
L 364.182033 90.565677 
L 370.397967 89.066736 
L 376.613902 90.909473 
L 382.829837 91.157004 
L 389.045771 88.75503 
L 395.261706 89.841419 
L 401.47764 90.941559 
L 407.693575 95.525482 
L 413.90951 96.533944 
L 420.125444 90.483166 
L 426.341379 85.390429 
L 432.557314 92.316736 
L 438.773248 87.888666 
L 444.989183 86.210952 
L 451.205117 78.684151 
L 457.421052 74.957421 
L 463.636987 72.436264 
L 469.852921 72.459183 
L 476.068856 62.823778 
L 482.284791 63.130902 
L 488.500725 57.90523 
L 494.71666 59.86715 
L 500.932594 62.530409 
L 507.148529 64.350226 
L 513.364464 66.151708 
L 519.580398 74.677803 
L 525.796333 77.180624 
L 532.012268 78.028649 
L 538.228202 78.986689 
L 544.444137 81.562853 
L 550.660072 82.539228 
L 556.876006 82.484221 
L 563.091941 78.422867 
L 569.307875 77.446492 
L 575.52381 79.486338 
L 581.739745 78.514546 
L 587.955679 72.647126 
L 594.171614 75.347056 
L 600.387549 76.181329 
L 606.603483 77.666521 
L 612.819418 79.362573 
L 619.035352 77.13937 
L 625.251287 76.167578 
L 631.467222 82.543815 
L 637.683156 78.35411 
L 643.899091 83.034294 
" clip-path="url(#p7d72e86408)" style="fill: none; stroke: #06a77d; stroke-width: 2.2; stroke-linecap: square"/>
   </g>
   <g id="line2d_31">
    <path d="M 63.02 298.561152 
L 671.56 298.561152 
" clip-path="url(#p7d72e86408)" style="fill: none; stroke-dasharray: 3.7,1.6; stroke-dashoffset: 0; stroke: #e63946; stroke-opacity: 0.6"/>
   </g>
   <g id="line2d_32">
    <path d="M 63.02 114.764203 
L 671.56 114.764203 
" clip-path="url(#p7d72e86408)" style="fill: none; stroke-dasharray: 3.7,1.6; stroke-dashoffset: 0; stroke: #2a9d8f; stroke-opacity: 0.6"/>
   </g>
   <g id="patch_7">
    <path d="M 63.02 353.32 
L 63.02 34.56 
" style="fill: none; stroke: #000000; stroke-width: 0.8; stroke-linejoin: miter; stroke-linecap: square"/>
   </g>
   <g id="patch_8">
    <path d="M 671.56 353.32 
L 671.56 34.56 
" style="fill: none; stroke: #000000; stroke-width: 0.8; stroke-linejoin: miter; stroke-linecap: square"/>
   </g>
   <g id="patch_9">
    <path d="M 63.02 353.32 
L 671.56 353.32 
" style="fill: none; stroke: #000000; stroke-width: 0.8; stroke-linejoin: miter; stroke-linecap: square"/>
   </g>
   <g id="patch_10">
    <path d="M 63.02 34.56 
L 671.56 34.56 
" style="fill: none; stroke: #000000; stroke-width: 0.8; stroke-linejoin: miter; stroke-linecap: square"/>
   </g>
   <g id="text_20">
    <!-- Reward from live env (POST /step) -->
    <g style="fill: #808080" transform="translate(75.1908 327.863859) scale(0.085 -0.085)">
     <defs>
      <path id="DejaVuSans-52" d="M 2841 2188 
Q 3044 2119 3236 1894 
Q 3428 1669 3622 1275 
L 4263 0 
L 3584 0 
L 2988 1197 
Q 2756 1666 2539 1819 
Q 2322 1972 1947 1972 
L 1259 1972 
L 1259 0 
L 628 0 
L 628 4666 
L 2053 4666 
Q 2853 4666 3247 4331 
Q 3641 3997 3641 3322 
Q 3641 2881 3436 2590 
Q 3231 2300 2841 2188 
z
M 1259 4147 
L 1259 2491 
L 2053 2491 
Q 2509 2491 2742 2702 
Q 2975 2913 2975 3322 
Q 2975 3731 2742 3939 
Q 2509 4147 2053 4147 
L 1259 4147 
z
" transform="scale(0.015625)"/>
      <path id="DejaVuSans-66" d="M 2375 4863 
L 2375 4384 
L 1825 4384 
Q 1516 4384 1395 4259 
Q 1275 4134 1275 3809 
L 1275 3500 
L 2222 3500 
L 2222 3053 
L 1275 3053 
L 1275 0 
L 697 0 
L 697 3053 
L 147 3053 
L 147 3500 
L 697 3500 
L 697 3744 
Q 697 4328 969 4595 
Q 1241 4863 1831 4863 
L 2375 4863 
z
" transform="scale(0.015625)"/>
      <path id="DejaVuSans-6d" d="M 3328 2828 
Q 3544 3216 3844 3400 
Q 4144 3584 4550 3584 
Q 5097 3584 5394 3201 
Q 5691 2819 5691 2113 
L 5691 0 
L 5113 0 
L 5113 2094 
Q 5113 2597 4934 2840 
Q 4756 3084 4391 3084 
Q 3944 3084 3684 2787 
Q 3425 2491 3425 1978 
L 3425 0 
L 2847 0 
L 2847 2094 
Q 2847 2600 2669 2842 
Q 2491 3084 2119 3084 
Q 1678 3084 1418 2786 
Q 1159 2488 1159 1978 
L 1159 0 
L 581 0 
L 581 3500 
L 1159 3500 
L 1159 2956 
Q 1356 3278 1631 3431 
Q 1906 3584 2284 3584 
Q 2666 3584 2933 3390 
Q 3200 3197 3328 2828 
z
" transform="scale(0.015625)"/>
      <path id="DejaVuSans-4f" d="M 2522 4238 
Q 1834 4238 1429 3725 
Q 1025 3213 1025 2328 
Q 1025 1447 1429 934 
Q 1834 422 2522 422 
Q 3209 422 3611 934 
Q 4013 1447 4013 2328 
Q 4013 3213 3611 3725 
Q 3209 4238 2522 4238 
z
M 2522 4750 
Q 3503 4750 4090 4092 
Q 4678 3434 4678 2328 
Q 4678 1225 4090 567 
Q 3503 -91 2522 -91 
Q 1538 -91 948 565 
Q 359 1222 359 2328 
Q 359 3434 948 4092 
Q 1538 4750 2522 4750 
z
" transform="scale(0.015625)"/>
      <path id="DejaVuSans-53" d="M 3425 4513 
L 3425 3897 
Q 3066 4069 2747 4153 
Q 2428 4238 2131 4238 
Q 1616 4238 1336 4038 
Q 1056 3838 1056 3469 
Q 1056 3159 1242 3001 
Q 1428 2844 1947 2747 
L 2328 2669 
Q 3034 2534 3370 2195 
Q 3706 1856 3706 1288 
Q 3706 609 3251 259 
Q 2797 -91 1919 -91 
Q 1588 -91 1214 -16 
Q 841 59 441 206 
L 441 856 
Q 825 641 1194 531 
Q 1563 422 1919 422 
Q 2459 422 2753 634 
Q 3047 847 3047 1241 
Q 3047 1584 2836 1778 
Q 2625 1972 2144 2069 
L 1759 2144 
Q 1053 2284 737 2584 
Q 422 2884 422 3419 
Q 422 4038 858 4394 
Q 1294 4750 2059 4750 
Q 2388 4750 2728 4690 
Q 3069 4631 3425 4513 
z
" transform="scale(0.015625)"/>
      <path id="DejaVuSans-2f" d="M 1625 4666 
L 2156 4666 
L 531 -594 
L 0 -594 
L 1625 4666 
z
" transform="scale(0.015625)"/>
     </defs>
     <use xlink:href="#DejaVuSans-52"/>
     <use xlink:href="#DejaVuSans-65" transform="translate(64.982422 0)"/>
     <use xlink:href="#DejaVuSans-77" transform="translate(126.505859 0)"/>
     <use xlink:href="#DejaVuSans-61" transform="translate(208.292969 0)"/>
     <use xlink:href="#DejaVuSans-72" transform="translate(269.572266 0)"/>
     <use xlink:href="#DejaVuSans-64" transform="translate(308.935547 0)"/>
     <use xlink:href="#DejaVuSans-20" transform="translate(372.412109 0)"/>
     <use xlink:href="#DejaVuSans-66" transform="translate(404.199219 0)"/>
     <use xlink:href="#DejaVuSans-72" transform="translate(439.404297 0)"/>
     <use xlink:href="#DejaVuSans-6f" transform="translate(478.267578 0)"/>
     <use xlink:href="#DejaVuSans-6d" transform="translate(539.449219 0)"/>
     <use xlink:href="#DejaVuSans-20" transform="translate(636.861328 0)"/>
     <use xlink:href="#DejaVuSans-6c" transform="translate(668.648438 0)"/>
     <use xlink:href="#DejaVuSans-69" transform="translate(696.431641 0)"/>
     <use xlink:href="#DejaVuSans-76" transform="translate(724.214844 0)"/>
     <use xlink:href="#DejaVuSans-65" transform="translate(783.394531 0)"/>
     <use xlink:href="#DejaVuSans-20" transform="translate(844.917969 0)"/>
     <use xlink:href="#DejaVuSans-65" transform="translate(876.705078 0)"/>
     <use xlink:href="#DejaVuSans-6e" transform="translate(938.228516 0)"/>
     <use xlink:href="#DejaVuSans-76" transform="translate(1001.607422 0)"/>
     <use xlink:href="#DejaVuSans-20" transform="translate(1060.787109 0)"/>
     <use xlink:href="#DejaVuSans-28" transform="translate(1092.574219 0)"/>
     <use xlink:href="#DejaVuSans-50" transform="translate(1131.587891 0)"/>
     <use xlink:href="#DejaVuSans-4f" transform="translate(1191.890625 0)"/>
     <use xlink:href="#DejaVuSans-53" transform="translate(1270.601562 0)"/>
     <use xlink:href="#DejaVuSans-54" transform="translate(1334.078125 0)"/>
     <use xlink:href="#DejaVuSans-20" transform="translate(1395.162109 0)"/>
     <use xlink:href="#DejaVuSans-2f" transform="translate(1426.949219 0)"/>
     <use xlink:href="#DejaVuSans-73" transform="translate(1460.640625 0)"/>
     <use xlink:href="#DejaVuSans-74" transform="translate(1512.740234 0)"/>
     <use xlink:href="#DejaVuSans-65" transform="translate(1551.949219 0)"/>
     <use xlink:href="#DejaVuSans-70" transform="translate(1613.472656 0)"/>
     <use xlink:href="#DejaVuSans-29" transform="translate(1676.949219 0)"/>
    </g>
    <!-- Not comparable to clamped [0,1] eval score. -->
    <g style="fill: #808080" transform="translate(75.1908 337.382) scale(0.085 -0.085)">
     <defs>
      <path id="DejaVuSans-4e" d="M 628 4666 
L 1478 4666 
L 3547 763 
L 3547 4666 
L 4159 4666 
L 4159 0 
L 3309 0 
L 1241 3903 
L 1241 0 
L 628 0 
L 628 4666 
z
" transform="scale(0.015625)"/>
      <path id="DejaVuSans-5b" d="M 550 4863 
L 1875 4863 
L 1875 4416 
L 1125 4416 
L 1125 -397 
L 1875 -397 
L 1875 -844 
L 550 -844 
L 550 4863 
z
" transform="scale(0.015625)"/>
      <path id="DejaVuSans-2c" d="M 750 794 
L 1409 794 
L 1409 256 
L 897 -744 
L 494 -744 
L 750 256 
L 750 794 
z
" transform="scale(0.015625)"/>
      <path id="DejaVuSans-5d" d="M 1947 4863 
L 1947 -844 
L 622 -844 
L 622 -397 
L 1369 -397 
L 1369 4416 
L 622 4416 
L 622 4863 
L 1947 4863 
z
" transform="scale(0.015625)"/>
     </defs>
     <use xlink:href="#DejaVuSans-4e"/>
     <use xlink:href="#DejaVuSans-6f" transform="translate(74.804688 0)"/>
     <use xlink:href="#DejaVuSans-74" transform="translate(135.986328 0)"/>
     <use xlink:href="#DejaVuSans-20" transform="translate(175.195312 0)"/>
     <use xlink:href="#DejaVuSans-63" transform="translate(206.982422 0)"/>
     <use xlink:href="#DejaVuSans-6f" transform="translate(261.962891 0)"/>
     <use xlink:href="#DejaVuSans-6d" transform="translate(323.144531 0)"/>
     <use xlink:href="#DejaVuSans-70" transform="translate(420.556641 0)"/>
     <use xlink:href="#DejaVuSans-61" transform="translate(484.033203 0)"/>
     <use xlink:href="#DejaVuSans-72" transform="translate(545.3125 0)"/>
     <use xlink:href="#DejaVuSans-61" transform="translate(586.425781 0)"/>
     <use xlink:href="#DejaVuSans-62" transform="translate(647.705078 0)"/>
     <use xlink:href="#DejaVuSans-6c" transform="translate(711.181641 0)"/>
     <use xlink:href="#DejaVuSans-65" transform="translate(738.964844 0)"/>
     <use xlink:href="#DejaVuSans-20" transform="translate(800.488281 0)"/>
     <use xlink:href="#DejaVuSans-74" transform="translate(832.275391 0)"/>
     <use xlink:href="#DejaVuSans-6f" transform="translate(871.484375 0)"/>
     <use xlink:href="#DejaVuSans-20" transform="translate(932.666016 0)"/>
     <use xlink:href="#DejaVuSans-63" transform="translate(964.453125 0)"/>
     <use xlink:href="#DejaVuSans-6c" transform="translate(1019.433594 0)"/>
     <use xlink:href="#DejaVuSans-61" transform="translate(1047.216797 0)"/>
     <use xlink:href="#DejaVuSans-6d" transform="translate(1108.496094 0)"/>
     <use xlink:href="#DejaVuSans-70" transform="translate(1205.908203 0)"/>
     <use xlink:href="#DejaVuSans-65" transform="translate(1269.384766 0)"/>
     <use xlink:href="#DejaVuSans-64" transform="translate(1330.908203 0)"/>
     <use xlink:href="#DejaVuSans-20" transform="translate(1394.384766 0)"/>
     <use xlink:href="#DejaVuSans-5b" transform="translate(1426.171875 0)"/>
     <use xlink:href="#DejaVuSans-30" transform="translate(1465.185547 0)"/>
     <use xlink:href="#DejaVuSans-2c" transform="translate(1528.808594 0)"/>
     <use xlink:href="#DejaVuSans-31" transform="translate(1560.595703 0)"/>
     <use xlink:href="#DejaVuSans-5d" transform="translate(1624.21875 0)"/>
     <use xlink:href="#DejaVuSans-20" transform="translate(1663.232422 0)"/>
     <use xlink:href="#DejaVuSans-65" transform="translate(1695.019531 0)"/>
     <use xlink:href="#DejaVuSans-76" transform="translate(1756.542969 0)"/>
     <use xlink:href="#DejaVuSans-61" transform="translate(1815.722656 0)"/>
     <use xlink:href="#DejaVuSans-6c" transform="translate(1877.001953 0)"/>
     <use xlink:href="#DejaVuSans-20" transform="translate(1904.785156 0)"/>
     <use xlink:href="#DejaVuSans-73" transform="translate(1936.572266 0)"/>
     <use xlink:href="#DejaVuSans-63" transform="translate(1988.671875 0)"/>
     <use xlink:href="#DejaVuSans-6f" transform="translate(2043.652344 0)"/>
     <use xlink:href="#DejaVuSans-72" transform="translate(2104.833984 0)"/>
     <use xlink:href="#DejaVuSans-65" transform="translate(2143.697266 0)"/>
     <use xlink:href="#DejaVuSans-2e" transform="translate(2205.220703 0)"/>
    </g>
   </g>
   <g id="legend_1">
    <g id="patch_11">
     <path d="M 69.32 94.60125 
L 211.504531 94.60125 
Q 213.304531 94.60125 213.304531 92.80125 
L 213.304531 40.86 
Q 213.304531 39.06 211.504531 39.06 
L 69.32 39.06 
Q 67.52 39.06 67.52 40.86 
L 67.52 92.80125 
Q 67.52 94.60125 69.32 94.60125 
z
" style="fill: #ffffff; opacity: 0.85; stroke: #cccccc; stroke-linejoin: miter"/>
    </g>
    <g id="line2d_33">
     <path d="M 71.12 46.348594 
L 80.12 46.348594 
L 89.12 46.348594 
" style="fill: none; stroke: #26547c; stroke-opacity: 0.45; stroke-width: 1.2; stroke-linecap: square"/>
    </g>
    <g id="text_21">
     <!-- Training loss -->
     <g transform="translate(96.32 49.498594) scale(0.09 -0.09)">
      <use xlink:href="#DejaVuSans-54"/>
      <use xlink:href="#DejaVuSans-72" transform="translate(46.333984 0)"/>
      <use xlink:href="#DejaVuSans-61" transform="translate(87.447266 0)"/>
      <use xlink:href="#DejaVuSans-69" transform="translate(148.726562 0)"/>
      <use xlink:href="#DejaVuSans-6e" transform="translate(176.509766 0)"/>
      <use xlink:href="#DejaVuSans-69" transform="translate(239.888672 0)"/>
      <use xlink:href="#DejaVuSans-6e" transform="translate(267.671875 0)"/>
      <use xlink:href="#DejaVuSans-67" transform="translate(331.050781 0)"/>
      <use xlink:href="#DejaVuSans-20" transform="translate(394.527344 0)"/>
      <use xlink:href="#DejaVuSans-6c" transform="translate(426.314453 0)"/>
      <use xlink:href="#DejaVuSans-6f" transform="translate(454.097656 0)"/>
      <use xlink:href="#DejaVuSans-73" transform="translate(515.279297 0)"/>
      <use xlink:href="#DejaVuSans-73" transform="translate(567.378906 0)"/>
     </g>
    </g>
    <g id="line2d_34">
     <path d="M 71.12 59.558906 
L 80.12 59.558906 
L 89.12 59.558906 
" style="fill: none; stroke: #06a77d; stroke-width: 2.2; stroke-linecap: square"/>
    </g>
    <g id="text_22">
     <!-- Mean reward (smoothed) -->
     <g transform="translate(96.32 62.708906) scale(0.09 -0.09)">
      <defs>
       <path id="DejaVuSans-68" d="M 3513 2113 
L 3513 0 
L 2938 0 
L 2938 2094 
Q 2938 2591 2744 2837 
Q 2550 3084 2163 3084 
Q 1697 3084 1428 2787 
Q 1159 2491 1159 1978 
L 1159 0 
L 581 0 
L 581 4863 
L 1159 4863 
L 1159 2956 
Q 1366 3272 1645 3428 
Q 1925 3584 2291 3584 
Q 2894 3584 3203 3211 
Q 3513 2838 3513 2113 
z
" transform="scale(0.015625)"/>
      </defs>
      <use xlink:href="#DejaVuSans-4d"/>
      <use xlink:href="#DejaVuSans-65" transform="translate(86.279297 0)"/>
      <use xlink:href="#DejaVuSans-61" transform="translate(147.802734 0)"/>
      <use xlink:href="#DejaVuSans-6e" transform="translate(209.082031 0)"/>
      <use xlink:href="#DejaVuSans-20" transform="translate(272.460938 0)"/>
      <use xlink:href="#DejaVuSans-72" transform="translate(304.248047 0)"/>
      <use xlink:href="#DejaVuSans-65" transform="translate(343.111328 0)"/>
      <use xlink:href="#DejaVuSans-77" transform="translate(404.634766 0)"/>
      <use xlink:href="#DejaVuSans-61" transform="translate(486.421875 0)"/>
      <use xlink:href="#DejaVuSans-72" transform="translate(547.701172 0)"/>
      <use xlink:href="#DejaVuSans-64" transform="translate(587.064453 0)"/>
      <use xlink:href="#DejaVuSans-20" transform="translate(650.541016 0)"/>
      <use xlink:href="#DejaVuSans-28" transform="translate(682.328125 0)"/>
      <use xlink:href="#DejaVuSans-73" transform="translate(721.341797 0)"/>
      <use xlink:href="#DejaVuSans-6d" transform="translate(773.441406 0)"/>
      <use xlink:href="#DejaVuSans-6f" transform="translate(870.853516 0)"/>
      <use xlink:href="#DejaVuSans-6f" transform="translate(932.035156 0)"/>
      <use xlink:href="#DejaVuSans-74" transform="translate(993.216797 0)"/>
      <use xlink:href="#DejaVuSans-68" transform="translate(1032.425781 0)"/>
      <use xlink:href="#DejaVuSans-65" transform="translate(1095.804688 0)"/>
      <use xlink:href="#DejaVuSans-64" transform="translate(1157.328125 0)"/>
      <use xlink:href="#DejaVuSans-29" transform="translate(1220.804688 0)"/>
     </g>
    </g>
    <g id="line2d_35">
     <path d="M 71.12 72.769219 
L 80.12 72.769219 
L 89.12 72.769219 
" style="fill: none; stroke-dasharray: 3.7,1.6; stroke-dashoffset: 0; stroke: #e63946; stroke-opacity: 0.6"/>
    </g>
    <g id="text_23">
     <!-- Start: 0.045 -->
     <g transform="translate(96.32 75.919219) scale(0.09 -0.09)">
      <defs>
       <path id="DejaVuSans-3a" d="M 750 794 
L 1409 794 
L 1409 0 
L 750 0 
L 750 794 
z
M 750 3309 
L 1409 3309 
L 1409 2516 
L 750 2516 
L 750 3309 
z
" transform="scale(0.015625)"/>
       <path id="DejaVuSans-35" d="M 691 4666 
L 3169 4666 
L 3169 4134 
L 1269 4134 
L 1269 2991 
Q 1406 3038 1543 3061 
Q 1681 3084 1819 3084 
Q 2600 3084 3056 2656 
Q 3513 2228 3513 1497 
Q 3513 744 3044 326 
Q 2575 -91 1722 -91 
Q 1428 -91 1123 -41 
Q 819 9 494 109 
L 494 744 
Q 775 591 1075 516 
Q 1375 441 1709 441 
Q 2250 441 2565 725 
Q 2881 1009 2881 1497 
Q 2881 1984 2565 2268 
Q 2250 2553 1709 2553 
Q 1456 2553 1204 2497 
Q 953 2441 691 2322 
L 691 4666 
z
" transform="scale(0.015625)"/>
      </defs>
      <use xlink:href="#DejaVuSans-53"/>
      <use xlink:href="#DejaVuSans-74" transform="translate(63.476562 0)"/>
      <use xlink:href="#DejaVuSans-61" transform="translate(102.685547 0)"/>
      <use xlink:href="#DejaVuSans-72" transform="translate(163.964844 0)"/>
      <use xlink:href="#DejaVuSans-74" transform="translate(205.078125 0)"/>
      <use xlink:href="#DejaVuSans-3a" transform="translate(244.287109 0)"/>
      <use xlink:href="#DejaVuSans-20" transform="translate(277.978516 0)"/>
      <use xlink:href="#DejaVuSans-30" transform="translate(309.765625 0)"/>
      <use xlink:href="#DejaVuSans-2e" transform="translate(373.388672 0)"/>
      <use xlink:href="#DejaVuSans-30" transform="translate(405.175781 0)"/>
      <use xlink:href="#DejaVuSans-34" transform="translate(468.798828 0)"/>
      <use xlink:href="#DejaVuSans-35" transform="translate(532.421875 0)"/>
     </g>
    </g>
    <g id="line2d_36">
     <path d="M 71.12 85.979531 
L 80.12 85.979531 
L 89.12 85.979531 
" style="fill: none; stroke-dasharray: 3.7,1.6; stroke-dashoffset: 0; stroke: #2a9d8f; stroke-opacity: 0.6"/>
    </g>
    <g id="text_24">
     <!-- End: 0.332 -->
     <g transform="translate(96.32 89.129531) scale(0.09 -0.09)">
      <defs>
       <path id="DejaVuSans-45" d="M 628 4666 
L 3578 4666 
L 3578 4134 
L 1259 4134 
L 1259 2753 
L 3481 2753 
L 3481 2222 
L 1259 2222 
L 1259 531 
L 3634 531 
L 3634 0 
L 628 0 
L 628 4666 
z
" transform="scale(0.015625)"/>
      </defs>
      <use xlink:href="#DejaVuSans-45"/>
      <use xlink:href="#DejaVuSans-6e" transform="translate(63.183594 0)"/>
      <use xlink:href="#DejaVuSans-64" transform="translate(126.5625 0)"/>
      <use xlink:href="#DejaVuSans-3a" transform="translate(190.039062 0)"/>
      <use xlink:href="#DejaVuSans-20" transform="translate(223.730469 0)"/>
      <use xlink:href="#DejaVuSans-30" transform="translate(255.517578 0)"/>
      <use xlink:href="#DejaVuSans-2e" transform="translate(319.140625 0)"/>
      <use xlink:href="#DejaVuSans-33" transform="translate(350.927734 0)"/>
      <use xlink:href="#DejaVuSans-33" transform="translate(414.550781 0)"/>
      <use xlink:href="#DejaVuSans-32" transform="translate(478.173828 0)"/>
     </g>
    </g>
   </g>
  </g>
  <g id="text_25">
   <!-- DebateFloor GRPO Training — Live Env Reward (HTTP, MR-2 Compliant) -->
   <g transform="translate(99.313437 17.797969) scale(0.13 -0.13)">
    <defs>
     <path id="DejaVuSans-Bold-44" d="M 1791 3756 
L 1791 909 
L 2222 909 
Q 2959 909 3348 1275 
Q 3738 1641 3738 2338 
Q 3738 3031 3350 3393 
Q 2963 3756 2222 3756 
L 1791 3756 
z
M 588 4666 
L 1856 4666 
Q 2919 4666 3439 4514 
Q 3959 4363 4331 4000 
Q 4659 3684 4818 3271 
Q 4978 2859 4978 2338 
Q 4978 1809 4818 1395 
Q 4659 981 4331 666 
Q 3956 303 3431 151 
Q 2906 0 1856 0 
L 588 0 
L 588 4666 
z
" transform="scale(0.015625)"/>
     <path id="DejaVuSans-Bold-65" d="M 4031 1759 
L 4031 1441 
L 1416 1441 
Q 1456 1047 1700 850 
Q 1944 653 2381 653 
Q 2734 653 3104 758 
Q 3475 863 3866 1075 
L 3866 213 
Q 3469 63 3072 -14 
Q 2675 -91 2278 -91 
Q 1328 -91 801 392 
Q 275 875 275 1747 
Q 275 2603 792 3093 
Q 1309 3584 2216 3584 
Q 3041 3584 3536 3087 
Q 4031 2591 4031 1759 
z
M 2881 2131 
Q 2881 2450 2695 2645 
Q 2509 2841 2209 2841 
Q 1884 2841 1681 2658 
Q 1478 2475 1428 2131 
L 2881 2131 
z
" transform="scale(0.015625)"/>
     <path id="DejaVuSans-Bold-62" d="M 2400 722 
Q 2759 722 2948 984 
Q 3138 1247 3138 1747 
Q 3138 2247 2948 2509 
Q 2759 2772 2400 2772 
Q 2041 2772 1848 2508 
Q 1656 2244 1656 1747 
Q 1656 1250 1848 986 
Q 2041 722 2400 722 
z
M 1656 2988 
Q 1888 3294 2169 3439 
Q 2450 3584 2816 3584 
Q 3463 3584 3878 3070 
Q 4294 2556 4294 1747 
Q 4294 938 3878 423 
Q 3463 -91 2816 -91 
Q 2450 -91 2169 54 
Q 1888 200 1656 506 
L 1656 0 
L 538 0 
L 538 4863 
L 1656 4863 
L 1656 2988 
z
" transform="scale(0.015625)"/>
     <path id="DejaVuSans-Bold-61" d="M 2106 1575 
Q 1756 1575 1579 1456 
Q 1403 1338 1403 1106 
Q 1403 894 1545 773 
Q 1688 653 1941 653 
Q 2256 653 2472 879 
Q 2688 1106 2688 1447 
L 2688 1575 
L 2106 1575 
z
M 3816 1997 
L 3816 0 
L 2688 0 
L 2688 519 
Q 2463 200 2181 54 
Q 1900 -91 1497 -91 
Q 953 -91 614 226 
Q 275 544 275 1050 
Q 275 1666 698 1953 
Q 1122 2241 2028 2241 
L 2688 2241 
L 2688 2328 
Q 2688 2594 2478 2717 
Q 2269 2841 1825 2841 
Q 1466 2841 1156 2769 
Q 847 2697 581 2553 
L 581 3406 
Q 941 3494 1303 3539 
Q 1666 3584 2028 3584 
Q 2975 3584 3395 3211 
Q 3816 2838 3816 1997 
z
" transform="scale(0.015625)"/>
     <path id="DejaVuSans-Bold-74" d="M 1759 4494 
L 1759 3500 
L 2913 3500 
L 2913 2700 
L 1759 2700 
L 1759 1216 
Q 1759 972 1856 886 
Q 1953 800 2241 800 
L 2816 800 
L 2816 0 
L 1856 0 
Q 1194 0 917 276 
Q 641 553 641 1216 
L 641 2700 
L 84 2700 
L 84 3500 
L 641 3500 
L 641 4494 
L 1759 4494 
z
" transform="scale(0.015625)"/>
     <path id="DejaVuSans-Bold-46" d="M 588 4666 
L 3834 4666 
L 3834 3756 
L 1791 3756 
L 1791 2888 
L 3713 2888 
L 3713 1978 
L 1791 1978 
L 1791 0 
L 588 0 
L 588 4666 
z
" transform="scale(0.015625)"/>
     <path id="DejaVuSans-Bold-6c" d="M 538 4863 
L 1656 4863 
L 1656 0 
L 538 0 
L 538 4863 
z
" transform="scale(0.015625)"/>
     <path id="DejaVuSans-Bold-6f" d="M 2203 2784 
Q 1831 2784 1636 2517 
Q 1441 2250 1441 1747 
Q 1441 1244 1636 976 
Q 1831 709 2203 709 
Q 2569 709 2762 976 
Q 2956 1244 2956 1747 
Q 2956 2250 2762 2517 
Q 2569 2784 2203 2784 
z
M 2203 3584 
Q 3106 3584 3614 3096 
Q 4122 2609 4122 1747 
Q 4122 884 3614 396 
Q 3106 -91 2203 -91 
Q 1297 -91 786 396 
Q 275 884 275 1747 
Q 275 2609 786 3096 
Q 1297 3584 2203 3584 
z
" transform="scale(0.015625)"/>
     <path id="DejaVuSans-Bold-72" d="M 3138 2547 
Q 2991 2616 2845 2648 
Q 2700 2681 2553 2681 
Q 2122 2681 1889 2404 
Q 1656 2128 1656 1613 
L 1656 0 
L 538 0 
L 538 3500 
L 1656 3500 
L 1656 2925 
Q 1872 3269 2151 3426 
Q 2431 3584 2822 3584 
Q 2878 3584 2943 3579 
Q 3009 3575 3134 3559 
L 3138 2547 
z
" transform="scale(0.015625)"/>
     <path id="DejaVuSans-Bold-20" transform="scale(0.015625)"/>
     <path id="DejaVuSans-Bold-47" d="M 4781 347 
Q 4331 128 3847 18 
Q 3363 -91 2847 -91 
Q 1681 -91 1000 561 
Q 319 1213 319 2328 
Q 319 3456 1012 4103 
Q 1706 4750 2913 4750 
Q 3378 4750 3804 4662 
Q 4231 4575 4609 4403 
L 4609 3438 
Q 4219 3659 3833 3768 
Q 3447 3878 3059 3878 
Q 2341 3878 1952 3476 
Q 1563 3075 1563 2328 
Q 1563 1588 1938 1184 
Q 2313 781 3003 781 
Q 3191 781 3352 804 
Q 3513 828 3641 878 
L 3641 1784 
L 2906 1784 
L 2906 2591 
L 4781 2591 
L 4781 347 
z
" transform="scale(0.015625)"/>
     <path id="DejaVuSans-Bold-52" d="M 2297 2597 
Q 2675 2597 2839 2737 
Q 3003 2878 3003 3200 
Q 3003 3519 2839 3656 
Q 2675 3794 2297 3794 
L 1791 3794 
L 1791 2597 
L 2297 2597 
z
M 1791 1766 
L 1791 0 
L 588 0 
L 588 4666 
L 2425 4666 
Q 3347 4666 3776 4356 
Q 4206 4047 4206 3378 
Q 4206 2916 3982 2619 
Q 3759 2322 3309 2181 
Q 3556 2125 3751 1926 
Q 3947 1728 4147 1325 
L 4800 0 
L 3519 0 
L 2950 1159 
Q 2778 1509 2601 1637 
Q 2425 1766 2131 1766 
L 1791 1766 
z
" transform="scale(0.015625)"/>
     <path id="DejaVuSans-Bold-50" d="M 588 4666 
L 2584 4666 
Q 3475 4666 3951 4270 
Q 4428 3875 4428 3144 
Q 4428 2409 3951 2014 
Q 3475 1619 2584 1619 
L 1791 1619 
L 1791 0 
L 588 0 
L 588 4666 
z
M 1791 3794 
L 1791 2491 
L 2456 2491 
Q 2806 2491 2997 2661 
Q 3188 2831 3188 3144 
Q 3188 3456 2997 3625 
Q 2806 3794 2456 3794 
L 1791 3794 
z
" transform="scale(0.015625)"/>
     <path id="DejaVuSans-Bold-4f" d="M 2719 3878 
Q 2169 3878 1866 3472 
Q 1563 3066 1563 2328 
Q 1563 1594 1866 1187 
Q 2169 781 2719 781 
Q 3272 781 3575 1187 
Q 3878 1594 3878 2328 
Q 3878 3066 3575 3472 
Q 3272 3878 2719 3878 
z
M 2719 4750 
Q 3844 4750 4481 4106 
Q 5119 3463 5119 2328 
Q 5119 1197 4481 553 
Q 3844 -91 2719 -91 
Q 1597 -91 958 553 
Q 319 1197 319 2328 
Q 319 3463 958 4106 
Q 1597 4750 2719 4750 
z
" transform="scale(0.015625)"/>
     <path id="DejaVuSans-Bold-54" d="M 31 4666 
L 4331 4666 
L 4331 3756 
L 2784 3756 
L 2784 0 
L 1581 0 
L 1581 3756 
L 31 3756 
L 31 4666 
z
" transform="scale(0.015625)"/>
     <path id="DejaVuSans-Bold-69" d="M 538 3500 
L 1656 3500 
L 1656 0 
L 538 0 
L 538 3500 
z
M 538 4863 
L 1656 4863 
L 1656 3950 
L 538 3950 
L 538 4863 
z
" transform="scale(0.015625)"/>
     <path id="DejaVuSans-Bold-6e" d="M 4056 2131 
L 4056 0 
L 2931 0 
L 2931 347 
L 2931 1631 
Q 2931 2084 2911 2256 
Q 2891 2428 2841 2509 
Q 2775 2619 2662 2680 
Q 2550 2741 2406 2741 
Q 2056 2741 1856 2470 
Q 1656 2200 1656 1722 
L 1656 0 
L 538 0 
L 538 3500 
L 1656 3500 
L 1656 2988 
Q 1909 3294 2193 3439 
Q 2478 3584 2822 3584 
Q 3428 3584 3742 3212 
Q 4056 2841 4056 2131 
z
" transform="scale(0.015625)"/>
     <path id="DejaVuSans-Bold-67" d="M 2919 594 
Q 2688 288 2409 144 
Q 2131 0 1766 0 
Q 1125 0 706 504 
Q 288 1009 288 1791 
Q 288 2575 706 3076 
Q 1125 3578 1766 3578 
Q 2131 3578 2409 3434 
Q 2688 3291 2919 2981 
L 2919 3500 
L 4044 3500 
L 4044 353 
Q 4044 -491 3511 -936 
Q 2978 -1381 1966 -1381 
Q 1638 -1381 1331 -1331 
Q 1025 -1281 716 -1178 
L 716 -306 
Q 1009 -475 1290 -558 
Q 1572 -641 1856 -641 
Q 2406 -641 2662 -400 
Q 2919 -159 2919 353 
L 2919 594 
z
M 2181 2772 
Q 1834 2772 1640 2515 
Q 1447 2259 1447 1791 
Q 1447 1309 1634 1061 
Q 1822 813 2181 813 
Q 2531 813 2725 1069 
Q 2919 1325 2919 1791 
Q 2919 2259 2725 2515 
Q 2531 2772 2181 2772 
z
" transform="scale(0.015625)"/>
     <path id="DejaVuSans-Bold-2014" d="M 344 2156 
L 6056 2156 
L 6056 1350 
L 344 1350 
L 344 2156 
z
" transform="scale(0.015625)"/>
     <path id="DejaVuSans-Bold-4c" d="M 588 4666 
L 1791 4666 
L 1791 909 
L 3903 909 
L 3903 0 
L 588 0 
L 588 4666 
z
" transform="scale(0.015625)"/>
     <path id="DejaVuSans-Bold-76" d="M 97 3500 
L 1216 3500 
L 2088 1081 
L 2956 3500 
L 4078 3500 
L 2700 0 
L 1472 0 
L 97 3500 
z
" transform="scale(0.015625)"/>
     <path id="DejaVuSans-Bold-45" d="M 588 4666 
L 3834 4666 
L 3834 3756 
L 1791 3756 
L 1791 2888 
L 3713 2888 
L 3713 1978 
L 1791 1978 
L 1791 909 
L 3903 909 
L 3903 0 
L 588 0 
L 588 4666 
z
" transform="scale(0.015625)"/>
     <path id="DejaVuSans-Bold-77" d="M 225 3500 
L 1313 3500 
L 1900 1088 
L 2491 3500 
L 3425 3500 
L 4013 1113 
L 4603 3500 
L 5691 3500 
L 4769 0 
L 3547 0 
L 2956 2406 
L 2369 0 
L 1147 0 
L 225 3500 
z
" transform="scale(0.015625)"/>
     <path id="DejaVuSans-Bold-64" d="M 2919 2988 
L 2919 4863 
L 4044 4863 
L 4044 0 
L 2919 0 
L 2919 506 
Q 2688 197 2409 53 
Q 2131 -91 1766 -91 
Q 1119 -91 703 423 
Q 288 938 288 1747 
Q 288 2556 703 3070 
Q 1119 3584 1766 3584 
Q 2128 3584 2408 3439 
Q 2688 3294 2919 2988 
z
M 2181 722 
Q 2541 722 2730 984 
Q 2919 1247 2919 1747 
Q 2919 2247 2730 2509 
Q 2541 2772 2181 2772 
Q 1825 2772 1636 2509 
Q 1447 2247 1447 1747 
Q 1447 1247 1636 984 
Q 1825 722 2181 722 
z
" transform="scale(0.015625)"/>
     <path id="DejaVuSans-Bold-28" d="M 2413 -844 
L 1484 -844 
Q 1006 -72 778 623 
Q 550 1319 550 2003 
Q 550 2688 779 3389 
Q 1009 4091 1484 4856 
L 2413 4856 
Q 2013 4116 1813 3408 
Q 1613 2700 1613 2009 
Q 1613 1319 1811 609 
Q 2009 -100 2413 -844 
z
" transform="scale(0.015625)"/>
     <path id="DejaVuSans-Bold-48" d="M 588 4666 
L 1791 4666 
L 1791 2888 
L 3566 2888 
L 3566 4666 
L 4769 4666 
L 4769 0 
L 3566 0 
L 3566 1978 
L 1791 1978 
L 1791 0 
L 588 0 
L 588 4666 
z
" transform="scale(0.015625)"/>
     <path id="DejaVuSans-Bold-2c" d="M 653 1209 
L 1778 1209 
L 1778 256 
L 1006 -909 
L 341 -909 
L 653 256 
L 653 1209 
z
" transform="scale(0.015625)"/>
     <path id="DejaVuSans-Bold-4d" d="M 588 4666 
L 2119 4666 
L 3181 2169 
L 4250 4666 
L 5778 4666 
L 5778 0 
L 4641 0 
L 4641 3413 
L 3566 897 
L 2803 897 
L 1728 3413 
L 1728 0 
L 588 0 
L 588 4666 
z
" transform="scale(0.015625)"/>
     <path id="DejaVuSans-Bold-2d" d="M 347 2297 
L 2309 2297 
L 2309 1388 
L 347 1388 
L 347 2297 
z
" transform="scale(0.015625)"/>
     <path id="DejaVuSans-Bold-32" d="M 1844 884 
L 3897 884 
L 3897 0 
L 506 0 
L 506 884 
L 2209 2388 
Q 2438 2594 2547 2791 
Q 2656 2988 2656 3200 
Q 2656 3528 2436 3728 
Q 2216 3928 1850 3928 
Q 1569 3928 1234 3808 
Q 900 3688 519 3450 
L 519 4475 
Q 925 4609 1322 4679 
Q 1719 4750 2100 4750 
Q 2938 4750 3402 4381 
Q 3866 4013 3866 3353 
Q 3866 2972 3669 2642 
Q 3472 2313 2841 1759 
L 1844 884 
z
" transform="scale(0.015625)"/>
     <path id="DejaVuSans-Bold-43" d="M 4288 256 
Q 3956 84 3597 -3 
Q 3238 -91 2847 -91 
Q 1681 -91 1000 561 
Q 319 1213 319 2328 
Q 319 3447 1000 4098 
Q 1681 4750 2847 4750 
Q 3238 4750 3597 4662 
Q 3956 4575 4288 4403 
L 4288 3438 
Q 3953 3666 3628 3772 
Q 3303 3878 2944 3878 
Q 2300 3878 1931 3465 
Q 1563 3053 1563 2328 
Q 1563 1606 1931 1193 
Q 2300 781 2944 781 
Q 3303 781 3628 887 
Q 3953 994 4288 1222 
L 4288 256 
z
" transform="scale(0.015625)"/>
     <path id="DejaVuSans-Bold-6d" d="M 3781 2919 
Q 3994 3244 4286 3414 
Q 4578 3584 4928 3584 
Q 5531 3584 5847 3212 
Q 6163 2841 6163 2131 
L 6163 0 
L 5038 0 
L 5038 1825 
Q 5041 1866 5042 1909 
Q 5044 1953 5044 2034 
Q 5044 2406 4934 2573 
Q 4825 2741 4581 2741 
Q 4263 2741 4089 2478 
Q 3916 2216 3909 1719 
L 3909 0 
L 2784 0 
L 2784 1825 
Q 2784 2406 2684 2573 
Q 2584 2741 2328 2741 
Q 2006 2741 1831 2477 
Q 1656 2213 1656 1722 
L 1656 0 
L 531 0 
L 531 3500 
L 1656 3500 
L 1656 2988 
Q 1863 3284 2130 3434 
Q 2397 3584 2719 3584 
Q 3081 3584 3359 3409 
Q 3638 3234 3781 2919 
z
" transform="scale(0.015625)"/>
     <path id="DejaVuSans-Bold-70" d="M 1656 506 
L 1656 -1331 
L 538 -1331 
L 538 3500 
L 1656 3500 
L 1656 2988 
Q 1888 3294 2169 3439 
Q 2450 3584 2816 3584 
Q 3463 3584 3878 3070 
Q 4294 2556 4294 1747 
Q 4294 938 3878 423 
Q 3463 -91 2816 -91 
Q 2450 -91 2169 54 
Q 1888 200 1656 506 
z
M 2400 2772 
Q 2041 2772 1848 2508 
Q 1656 2244 1656 1747 
Q 1656 1250 1848 986 
Q 2041 722 2400 722 
Q 2759 722 2948 984 
Q 3138 1247 3138 1747 
Q 3138 2247 2948 2509 
Q 2759 2772 2400 2772 
z
" transform="scale(0.015625)"/>
     <path id="DejaVuSans-Bold-29" d="M 513 -844 
Q 913 -100 1113 609 
Q 1313 1319 1313 2009 
Q 1313 2700 1113 3408 
Q 913 4116 513 4856 
L 1441 4856 
Q 1916 4091 2145 3389 
Q 2375 2688 2375 2003 
Q 2375 1319 2147 623 
Q 1919 -72 1441 -844 
L 513 -844 
z
" transform="scale(0.015625)"/>
    </defs>
    <use xlink:href="#DejaVuSans-Bold-44"/>
    <use xlink:href="#DejaVuSans-Bold-65" transform="translate(83.007812 0)"/>
    <use xlink:href="#DejaVuSans-Bold-62" transform="translate(150.830078 0)"/>
    <use xlink:href="#DejaVuSans-Bold-61" transform="translate(222.412109 0)"/>
    <use xlink:href="#DejaVuSans-Bold-74" transform="translate(289.892578 0)"/>
    <use xlink:href="#DejaVuSans-Bold-65" transform="translate(337.695312 0)"/>
    <use xlink:href="#DejaVuSans-Bold-46" transform="translate(405.517578 0)"/>
    <use xlink:href="#DejaVuSans-Bold-6c" transform="translate(473.828125 0)"/>
    <use xlink:href="#DejaVuSans-Bold-6f" transform="translate(508.105469 0)"/>
    <use xlink:href="#DejaVuSans-Bold-6f" transform="translate(576.806641 0)"/>
    <use xlink:href="#DejaVuSans-Bold-72" transform="translate(645.507812 0)"/>
    <use xlink:href="#DejaVuSans-Bold-20" transform="translate(694.824219 0)"/>
    <use xlink:href="#DejaVuSans-Bold-47" transform="translate(729.638672 0)"/>
    <use xlink:href="#DejaVuSans-Bold-52" transform="translate(811.71875 0)"/>
    <use xlink:href="#DejaVuSans-Bold-50" transform="translate(888.720703 0)"/>
    <use xlink:href="#DejaVuSans-Bold-4f" transform="translate(962.011719 0)"/>
    <use xlink:href="#DejaVuSans-Bold-20" transform="translate(1047.021484 0)"/>
    <use xlink:href="#DejaVuSans-Bold-54" transform="translate(1081.835938 0)"/>
    <use xlink:href="#DejaVuSans-Bold-72" transform="translate(1139.048828 0)"/>
    <use xlink:href="#DejaVuSans-Bold-61" transform="translate(1188.365234 0)"/>
    <use xlink:href="#DejaVuSans-Bold-69" transform="translate(1255.845703 0)"/>
    <use xlink:href="#DejaVuSans-Bold-6e" transform="translate(1290.123047 0)"/>
    <use xlink:href="#DejaVuSans-Bold-69" transform="translate(1361.314453 0)"/>
    <use xlink:href="#DejaVuSans-Bold-6e" transform="translate(1395.591797 0)"/>
    <use xlink:href="#DejaVuSans-Bold-67" transform="translate(1466.783203 0)"/>
    <use xlink:href="#DejaVuSans-Bold-20" transform="translate(1538.365234 0)"/>
    <use xlink:href="#DejaVuSans-Bold-2014" transform="translate(1573.179688 0)"/>
    <use xlink:href="#DejaVuSans-Bold-20" transform="translate(1673.179688 0)"/>
    <use xlink:href="#DejaVuSans-Bold-4c" transform="translate(1707.994141 0)"/>
    <use xlink:href="#DejaVuSans-Bold-69" transform="translate(1771.714844 0)"/>
    <use xlink:href="#DejaVuSans-Bold-76" transform="translate(1805.992188 0)"/>
    <use xlink:href="#DejaVuSans-Bold-65" transform="translate(1871.177734 0)"/>
    <use xlink:href="#DejaVuSans-Bold-20" transform="translate(1939 0)"/>
    <use xlink:href="#DejaVuSans-Bold-45" transform="translate(1973.814453 0)"/>
    <use xlink:href="#DejaVuSans-Bold-6e" transform="translate(2042.125 0)"/>
    <use xlink:href="#DejaVuSans-Bold-76" transform="translate(2113.316406 0)"/>
    <use xlink:href="#DejaVuSans-Bold-20" transform="translate(2178.501953 0)"/>
    <use xlink:href="#DejaVuSans-Bold-52" transform="translate(2213.316406 0)"/>
    <use xlink:href="#DejaVuSans-Bold-65" transform="translate(2290.318359 0)"/>
    <use xlink:href="#DejaVuSans-Bold-77" transform="translate(2358.140625 0)"/>
    <use xlink:href="#DejaVuSans-Bold-61" transform="translate(2450.523438 0)"/>
    <use xlink:href="#DejaVuSans-Bold-72" transform="translate(2518.003906 0)"/>
    <use xlink:href="#DejaVuSans-Bold-64" transform="translate(2567.320312 0)"/>
    <use xlink:href="#DejaVuSans-Bold-20" transform="translate(2638.902344 0)"/>
    <use xlink:href="#DejaVuSans-Bold-28" transform="translate(2673.716797 0)"/>
    <use xlink:href="#DejaVuSans-Bold-48" transform="translate(2719.419922 0)"/>
    <use xlink:href="#DejaVuSans-Bold-54" transform="translate(2803.111328 0)"/>
    <use xlink:href="#DejaVuSans-Bold-54" transform="translate(2873.574219 0)"/>
    <use xlink:href="#DejaVuSans-Bold-50" transform="translate(2941.787109 0)"/>
    <use xlink:href="#DejaVuSans-Bold-2c" transform="translate(2996.703125 0)"/>
    <use xlink:href="#DejaVuSans-Bold-20" transform="translate(3034.691406 0)"/>
    <use xlink:href="#DejaVuSans-Bold-4d" transform="translate(3069.505859 0)"/>
    <use xlink:href="#DejaVuSans-Bold-52" transform="translate(3169.017578 0)"/>
    <use xlink:href="#DejaVuSans-Bold-2d" transform="translate(3246.019531 0)"/>
    <use xlink:href="#DejaVuSans-Bold-32" transform="translate(3287.523438 0)"/>
    <use xlink:href="#DejaVuSans-Bold-20" transform="translate(3357.103516 0)"/>
    <use xlink:href="#DejaVuSans-Bold-43" transform="translate(3391.917969 0)"/>
    <use xlink:href="#DejaVuSans-Bold-6f" transform="translate(3465.306641 0)"/>
    <use xlink:href="#DejaVuSans-Bold-6d" transform="translate(3534.007812 0)"/>
    <use xlink:href="#DejaVuSans-Bold-70" transform="translate(3638.207031 0)"/>
    <use xlink:href="#DejaVuSans-Bold-6c" transform="translate(3709.789062 0)"/>
    <use xlink:href="#DejaVuSans-Bold-69" transform="translate(3744.066406 0)"/>
    <use xlink:href="#DejaVuSans-Bold-61" transform="translate(3778.34375 0)"/>
    <use xlink:href="#DejaVuSans-Bold-6e" transform="translate(3845.824219 0)"/>
    <use xlink:href="#DejaVuSans-Bold-74" transform="translate(3917.015625 0)"/>
    <use xlink:href="#DejaVuSans-Bold-29" transform="translate(3964.818359 0)"/>
   </g>
  </g>
 </g>
 <defs>
  <clipPath id="p7d72e86408">
   <rect x="63.02" y="34.56" width="608.54" height="318.76"/>
  </clipPath>
 </defs>
</svg>
